<svg xmlns="http://www.w3.org/2000/svg" xmlns:xlink="http://www.w3.org/1999/xlink" width="50" zoomAndPan="magnify" viewBox="0 0 37.5 37.499999" height="50" preserveAspectRatio="xMidYMid meet" version="1.0"><defs><clipPath id="ad2e779062"><path d="M 0 0 L 37.007812 0 L 37.007812 37.007812 L 0 37.007812 Z M 0 0 " clip-rule="nonzero"/></clipPath></defs><g clip-path="url(#ad2e779062)"><path fill="#ffffff" d="M 31.585938 5.417969 C 28.09375 1.925781 23.445312 0 18.503906 0 C 13.5625 0 8.914062 1.925781 5.417969 5.417969 C 1.925781 8.914062 0 13.5625 0 18.503906 C 0 23.445312 1.925781 28.09375 5.417969 31.585938 C 8.914062 35.082031 13.5625 37.007812 18.503906 37.007812 C 23.445312 37.007812 28.09375 35.082031 31.585938 31.585938 C 35.082031 28.09375 37.007812 23.445312 37.007812 18.503906 C 37.007812 13.5625 35.082031 8.914062 31.585938 5.417969 Z M 29.570312 30.710938 L 29.570312 30.347656 C 29.570312 27.132812 26.964844 24.523438 23.75 24.523438 L 13.660156 24.523438 C 10.445312 24.523438 7.839844 27.132812 7.839844 30.347656 L 7.839844 31.0625 C 4.28125 28.035156 2.019531 23.53125 2.019531 18.503906 C 2.019531 9.414062 9.414062 2.019531 18.503906 2.019531 C 27.59375 2.019531 34.988281 9.414062 34.988281 18.503906 C 34.988281 23.335938 32.898438 27.691406 29.570312 30.710938 Z M 29.570312 30.710938 " fill-opacity="1" fill-rule="nonzero"/></g><path fill="#ffffff" d="M 25.199219 16.25 C 25.199219 16.691406 25.15625 17.128906 25.070312 17.5625 C 24.980469 17.996094 24.855469 18.414062 24.6875 18.824219 C 24.515625 19.230469 24.308594 19.621094 24.0625 19.988281 C 23.820312 20.355469 23.539062 20.695312 23.226562 21.007812 C 22.914062 21.320312 22.574219 21.597656 22.207031 21.84375 C 21.839844 22.089844 21.453125 22.296875 21.042969 22.464844 C 20.636719 22.632812 20.214844 22.761719 19.78125 22.847656 C 19.347656 22.933594 18.910156 22.976562 18.46875 22.976562 C 18.027344 22.976562 17.589844 22.933594 17.15625 22.847656 C 16.722656 22.761719 16.304688 22.632812 15.894531 22.464844 C 15.488281 22.296875 15.097656 22.089844 14.730469 21.84375 C 14.363281 21.597656 14.023438 21.320312 13.710938 21.007812 C 13.398438 20.695312 13.121094 20.355469 12.875 19.988281 C 12.628906 19.621094 12.421875 19.230469 12.253906 18.824219 C 12.085938 18.414062 11.957031 17.996094 11.871094 17.5625 C 11.785156 17.128906 11.742188 16.691406 11.742188 16.25 C 11.742188 15.808594 11.785156 15.371094 11.871094 14.9375 C 11.957031 14.503906 12.085938 14.082031 12.253906 13.675781 C 12.421875 13.265625 12.628906 12.878906 12.875 12.511719 C 13.121094 12.144531 13.398438 11.804688 13.710938 11.492188 C 14.023438 11.179688 14.363281 10.898438 14.730469 10.65625 C 15.097656 10.410156 15.488281 10.203125 15.894531 10.03125 C 16.304688 9.863281 16.722656 9.734375 17.15625 9.648438 C 17.589844 9.5625 18.027344 9.519531 18.46875 9.519531 C 18.910156 9.519531 19.347656 9.5625 19.78125 9.648438 C 20.214844 9.734375 20.636719 9.863281 21.042969 10.03125 C 21.453125 10.203125 21.839844 10.410156 22.207031 10.65625 C 22.574219 10.898438 22.914062 11.179688 23.226562 11.492188 C 23.539062 11.804688 23.820312 12.144531 24.0625 12.511719 C 24.308594 12.878906 24.515625 13.265625 24.6875 13.675781 C 24.855469 14.082031 24.980469 14.503906 25.070312 14.9375 C 25.15625 15.371094 25.199219 15.808594 25.199219 16.25 Z M 25.199219 16.25 " fill-opacity="1" fill-rule="nonzero"/></svg>