<svg xmlns="http://www.w3.org/2000/svg" xmlns:xlink="http://www.w3.org/1999/xlink" width="50" zoomAndPan="magnify" viewBox="0 0 37.5 37.499999" height="50" preserveAspectRatio="xMidYMid meet" version="1.0"><defs><clipPath id="b16e9ae5bc"><path d="M 9 2.320312 L 36 2.320312 L 36 20 L 9 20 Z M 9 2.320312 " clip-rule="nonzero"/></clipPath><clipPath id="eaf90865d7"><path d="M 0 20 L 37 20 L 37 34.886719 L 0 34.886719 Z M 0 20 " clip-rule="nonzero"/></clipPath></defs><g clip-path="url(#b16e9ae5bc)"><path fill="#ffffff" d="M 9.929688 12.914062 L 9.929688 15.308594 C 9.929688 15.652344 10.210938 15.929688 10.550781 15.929688 L 15.5625 15.929688 C 15.53125 16.207031 15.515625 16.496094 15.515625 16.78125 L 15.515625 19.265625 C 15.515625 19.605469 15.792969 19.882812 16.132812 19.882812 L 29.78125 19.882812 C 30.121094 19.882812 30.402344 19.605469 30.402344 19.265625 L 30.402344 16.78125 C 30.402344 16.496094 30.386719 16.207031 30.355469 15.929688 L 35.363281 15.929688 C 35.707031 15.929688 35.984375 15.652344 35.984375 15.308594 L 35.984375 12.914062 C 35.984375 10.578125 34.464844 8.601562 32.363281 7.902344 C 32.953125 7.316406 33.308594 6.5 33.308594 5.601562 C 33.308594 3.792969 31.835938 2.320312 30.03125 2.320312 C 28.261719 2.320312 26.820312 3.726562 26.75 5.46875 C 26.316406 3.664062 24.6875 2.320312 22.75 2.320312 C 20.910156 2.320312 19.351562 3.523438 18.816406 5.191406 C 18.617188 3.578125 17.234375 2.320312 15.570312 2.320312 C 13.761719 2.320312 12.289062 3.792969 12.289062 5.601562 C 12.289062 6.539062 12.683594 7.390625 13.328125 7.988281 C 11.34375 8.75 9.929688 10.671875 9.929688 12.914062 Z M 34.742188 12.914062 L 34.742188 14.6875 L 30.097656 14.6875 C 29.550781 12.8125 28.277344 11.238281 26.601562 10.292969 C 27.363281 9.402344 28.480469 8.875 29.671875 8.875 L 30.710938 8.875 C 32.9375 8.882812 34.742188 10.6875 34.742188 12.914062 Z M 30.03125 3.5625 C 31.152344 3.5625 32.070312 4.476562 32.070312 5.601562 C 32.070312 6.726562 31.152344 7.640625 30.03125 7.640625 C 28.90625 7.640625 27.992188 6.726562 27.992188 5.601562 C 27.992188 4.476562 28.90625 3.5625 30.03125 3.5625 Z M 26.875 6.484375 C 27.035156 7.066406 27.355469 7.585938 27.789062 7.988281 C 26.867188 8.347656 26.050781 8.949219 25.445312 9.765625 C 25.394531 9.742188 25.339844 9.726562 25.285156 9.710938 C 26.238281 8.957031 26.867188 7.796875 26.875 6.484375 Z M 22.75 3.5625 C 24.339844 3.5625 25.640625 4.855469 25.640625 6.453125 C 25.640625 8.050781 24.347656 9.347656 22.75 9.347656 C 21.152344 9.347656 19.855469 8.042969 19.855469 6.453125 C 19.855469 4.863281 21.152344 3.5625 22.75 3.5625 Z M 22.957031 10.578125 C 26.378906 10.578125 29.160156 13.363281 29.160156 16.78125 L 29.160156 18.644531 L 16.753906 18.644531 L 16.753906 16.78125 C 16.753906 13.363281 19.539062 10.578125 22.957031 10.578125 Z M 18.632812 6.757812 C 18.679688 7.398438 18.871094 8.003906 19.183594 8.53125 C 18.785156 8.261719 18.351562 8.050781 17.894531 7.902344 C 18.210938 7.578125 18.46875 7.191406 18.632812 6.757812 Z M 15.5625 3.5625 C 16.683594 3.5625 17.601562 4.476562 17.601562 5.601562 C 17.601562 6.726562 16.683594 7.640625 15.5625 7.640625 C 14.4375 7.640625 13.519531 6.726562 13.519531 5.601562 C 13.519531 4.476562 14.4375 3.5625 15.5625 3.5625 Z M 15.203125 8.882812 L 16.242188 8.882812 C 17.4375 8.882812 18.546875 9.402344 19.3125 10.300781 C 17.640625 11.246094 16.367188 12.820312 15.816406 14.695312 L 11.171875 14.695312 L 11.171875 12.921875 C 11.171875 10.6875 12.980469 8.882812 15.203125 8.882812 Z M 15.203125 8.882812 " fill-opacity="1" fill-rule="nonzero"/></g><g clip-path="url(#eaf90865d7)"><path fill="#ffffff" d="M 5.773438 20.3125 L 0.625 20.3125 C 0.285156 20.3125 0.0078125 20.589844 0.0078125 20.929688 L 0.0078125 32.40625 C 0.0078125 32.75 0.285156 33.027344 0.625 33.027344 L 5.773438 33.027344 C 6.117188 33.027344 6.394531 32.75 6.394531 32.40625 L 6.394531 31.421875 L 8.875 31.421875 L 16.234375 33.757812 C 17.902344 34.375 19.304688 34.679688 20.703125 34.679688 C 22.105469 34.679688 23.507812 34.367188 25.183594 33.75 C 25.246094 33.726562 25.308594 33.695312 25.363281 33.648438 L 36.140625 24.855469 C 36.171875 24.824219 36.203125 24.792969 36.234375 24.761719 C 37 23.808594 36.960938 22.351562 36.140625 21.441406 C 35.324219 20.535156 34.015625 20.441406 33.101562 21.234375 L 27.71875 25.582031 C 27.71875 25.527344 27.71875 25.476562 27.71875 25.421875 C 27.695312 24.125 26.679688 23.0625 25.445312 23.0625 L 19.46875 23.0625 C 19.128906 23.0625 18.800781 22.863281 18.601562 22.527344 C 18.554688 22.457031 18.5 22.398438 18.429688 22.34375 C 15.894531 20.503906 12.691406 20.15625 9.875 21.410156 L 8.835938 21.878906 L 6.394531 21.878906 L 6.394531 20.929688 C 6.394531 20.589844 6.125 20.3125 5.773438 20.3125 Z M 3.109375 30.855469 C 2.765625 30.855469 2.488281 30.578125 2.488281 30.234375 C 2.488281 29.894531 2.765625 29.617188 3.109375 29.617188 C 3.449219 29.617188 3.726562 29.894531 3.726562 30.234375 C 3.726562 30.578125 3.449219 30.855469 3.109375 30.855469 Z M 5.15625 22.503906 L 5.15625 31.785156 L 4.140625 31.785156 C 4.636719 31.453125 4.96875 30.886719 4.96875 30.234375 C 4.96875 29.210938 4.132812 28.375 3.109375 28.375 C 2.085938 28.375 1.246094 29.210938 1.246094 30.234375 C 1.246094 30.878906 1.582031 31.453125 2.078125 31.785156 L 1.246094 31.785156 L 1.246094 21.550781 L 5.15625 21.550781 Z M 8.976562 23.125 C 9.0625 23.125 9.148438 23.109375 9.226562 23.070312 L 10.390625 22.550781 C 12.761719 21.496094 15.453125 21.777344 17.617188 23.289062 C 18.050781 23.933594 18.730469 24.304688 19.476562 24.304688 L 25.453125 24.304688 C 26.011719 24.304688 26.476562 24.816406 26.484375 25.4375 C 26.492188 25.785156 26.371094 26.109375 26.144531 26.335938 C 26.035156 26.445312 25.90625 26.53125 25.773438 26.574219 C 25.59375 26.605469 25.417969 26.621094 25.238281 26.621094 L 18.585938 26.621094 C 18.242188 26.621094 17.964844 26.902344 17.964844 27.242188 C 17.964844 27.585938 18.242188 27.863281 18.585938 27.863281 L 25.515625 27.863281 C 25.703125 27.863281 25.890625 27.839844 26.066406 27.792969 C 26.84375 27.652344 27.570312 27.3125 28.214844 26.800781 L 33.90625 22.195312 C 33.914062 22.1875 33.914062 22.1875 33.921875 22.179688 C 34.324219 21.832031 34.875 21.878906 35.242188 22.273438 C 35.644531 22.714844 35.675781 23.449219 35.316406 23.941406 L 24.679688 32.625 C 21.671875 33.726562 19.710938 33.710938 16.675781 32.585938 C 16.667969 32.585938 16.660156 32.578125 16.644531 32.578125 L 9.1875 30.203125 C 9.125 30.1875 9.0625 30.175781 9 30.175781 L 6.394531 30.175781 L 6.394531 23.117188 L 8.976562 23.117188 Z M 8.976562 23.125 " fill-opacity="1" fill-rule="nonzero"/></g></svg>