<svg xmlns="http://www.w3.org/2000/svg" xmlns:xlink="http://www.w3.org/1999/xlink" width="50" zoomAndPan="magnify" viewBox="0 0 37.5 37.499999" height="50" preserveAspectRatio="xMidYMid meet" version="1.0"><defs><clipPath id="b03136fba7"><path d="M 4.945312 0 L 32.332031 0 L 32.332031 37 L 4.945312 37 Z M 4.945312 0 " clip-rule="nonzero"/></clipPath></defs><g clip-path="url(#b03136fba7)"><path fill="#ffffff" d="M 30.820312 4.949219 L 27.125 4.949219 C 27.125 4.273438 26.570312 3.71875 25.890625 3.71875 L 23.253906 3.71875 C 22.699219 1.597656 20.789062 0.0195312 18.5 0.0195312 C 16.207031 0.0195312 14.296875 1.597656 13.742188 3.71875 L 11.105469 3.71875 C 10.429688 3.71875 9.875 4.273438 9.875 4.949219 L 6.175781 4.949219 C 5.5 4.949219 4.945312 5.503906 4.945312 6.183594 L 4.945312 35.753906 C 4.945312 36.429688 5.5 36.984375 6.175781 36.984375 L 30.820312 36.984375 C 31.5 36.984375 32.054688 36.429688 32.054688 35.753906 L 32.054688 6.183594 C 32.054688 5.503906 31.5 4.949219 30.820312 4.949219 Z M 18.5 2.484375 C 19.410156 2.484375 20.1875 2.992188 20.617188 3.71875 L 16.378906 3.71875 C 16.8125 2.992188 17.601562 2.484375 18.5 2.484375 Z M 24.660156 6.183594 L 24.660156 7.414062 L 12.339844 7.414062 L 12.339844 6.183594 Z M 28.355469 34.519531 L 8.640625 34.519531 C 7.964844 34.519531 7.410156 33.964844 7.410156 33.289062 L 7.410156 8.644531 C 7.410156 7.96875 7.964844 7.414062 8.640625 7.414062 L 9.875 7.414062 L 9.875 8.644531 C 9.875 9.324219 10.429688 9.878906 11.105469 9.878906 L 25.890625 9.878906 C 26.570312 9.878906 27.125 9.324219 27.125 8.644531 L 27.125 7.414062 L 28.355469 7.414062 C 29.035156 7.414062 29.589844 7.96875 29.589844 8.644531 L 29.589844 33.289062 C 29.589844 33.964844 29.035156 34.519531 28.355469 34.519531 Z M 15.640625 13.96875 C 16.121094 14.449219 16.121094 15.226562 15.640625 15.707031 L 13.199219 18.144531 C 12.953125 18.390625 12.644531 18.503906 12.324219 18.503906 C 12.003906 18.503906 11.699219 18.378906 11.453125 18.144531 L 10.21875 16.914062 C 9.738281 16.433594 9.738281 15.65625 10.21875 15.175781 C 10.699219 14.695312 11.476562 14.695312 11.957031 15.175781 L 12.3125 15.535156 L 13.878906 13.96875 C 14.359375 13.488281 15.136719 13.488281 15.617188 13.96875 Z M 27.125 16.039062 C 27.125 16.714844 26.570312 17.269531 25.890625 17.269531 L 19.730469 17.269531 C 19.054688 17.269531 18.5 16.714844 18.5 16.039062 C 18.5 15.359375 19.054688 14.808594 19.730469 14.808594 L 25.890625 14.808594 C 26.570312 14.808594 27.125 15.359375 27.125 16.039062 Z M 15.640625 20.128906 C 16.121094 20.609375 16.121094 21.386719 15.640625 21.867188 L 13.199219 24.308594 C 12.953125 24.554688 12.644531 24.664062 12.324219 24.664062 C 12.003906 24.664062 11.699219 24.539062 11.453125 24.308594 L 10.21875 23.074219 C 9.738281 22.59375 9.738281 21.816406 10.21875 21.335938 C 10.699219 20.855469 11.476562 20.855469 11.957031 21.335938 L 12.3125 21.695312 L 13.878906 20.128906 C 14.359375 19.648438 15.136719 19.648438 15.617188 20.128906 Z M 27.125 22.199219 C 27.125 22.878906 26.570312 23.433594 25.890625 23.433594 L 19.730469 23.433594 C 19.054688 23.433594 18.5 22.878906 18.5 22.199219 C 18.5 21.523438 19.054688 20.96875 19.730469 20.96875 L 25.890625 20.96875 C 26.570312 20.96875 27.125 21.523438 27.125 22.199219 Z M 15.640625 26.289062 C 16.121094 26.769531 16.121094 27.546875 15.640625 28.027344 L 13.199219 30.46875 C 12.953125 30.714844 12.644531 30.824219 12.324219 30.824219 C 12.003906 30.824219 11.699219 30.703125 11.453125 30.46875 L 10.21875 29.234375 C 9.738281 28.753906 9.738281 27.980469 10.21875 27.496094 C 10.699219 27.015625 11.476562 27.015625 11.957031 27.496094 L 12.3125 27.855469 L 13.878906 26.289062 C 14.359375 25.808594 15.136719 25.808594 15.617188 26.289062 Z M 27.125 28.359375 C 27.125 29.039062 26.570312 29.59375 25.890625 29.59375 L 19.730469 29.59375 C 19.054688 29.59375 18.5 29.039062 18.5 28.359375 C 18.5 27.683594 19.054688 27.128906 19.730469 27.128906 L 25.890625 27.128906 C 26.570312 27.128906 27.125 27.683594 27.125 28.359375 Z M 27.125 28.359375 " fill-opacity="1" fill-rule="nonzero"/></g></svg>