<svg xmlns="http://www.w3.org/2000/svg" xmlns:xlink="http://www.w3.org/1999/xlink" width="50" zoomAndPan="magnify" viewBox="0 0 37.5 37.499999" height="50" preserveAspectRatio="xMidYMid meet" version="1.0"><defs><clipPath id="e674b10e73"><path d="M 0.324219 11 L 20 11 L 20 37.007812 L 0.324219 37.007812 Z M 0.324219 11 " clip-rule="nonzero"/></clipPath><clipPath id="bf68062ace"><path d="M 0.324219 15 L 20 15 L 20 17 L 0.324219 17 Z M 0.324219 15 " clip-rule="nonzero"/></clipPath><clipPath id="e592b4f672"><path d="M 0.324219 1 L 37.007812 1 L 37.007812 3 L 0.324219 3 Z M 0.324219 1 " clip-rule="nonzero"/></clipPath><clipPath id="b933094169"><path d="M 0.324219 0 L 2 0 L 2 5 L 0.324219 5 Z M 0.324219 0 " clip-rule="nonzero"/></clipPath><clipPath id="8a10d6f116"><path d="M 35 0 L 37.007812 0 L 37.007812 5 L 35 5 Z M 35 0 " clip-rule="nonzero"/></clipPath><clipPath id="caa072c46c"><path d="M 22 25 L 36 25 L 36 37.007812 L 22 37.007812 Z M 22 25 " clip-rule="nonzero"/></clipPath><clipPath id="39f2d2fb1c"><path d="M 20 23 L 37.007812 23 L 37.007812 27 L 20 27 Z M 20 23 " clip-rule="nonzero"/></clipPath></defs><g clip-path="url(#e674b10e73)"><path fill="#ffffff" d="M 19.238281 37.003906 L 0.898438 37.003906 C 0.582031 37.003906 0.324219 36.75 0.324219 36.433594 L 0.324219 11.785156 C 0.324219 11.46875 0.582031 11.214844 0.898438 11.214844 L 19.238281 11.214844 C 19.554688 11.214844 19.8125 11.46875 19.8125 11.785156 L 19.8125 36.433594 C 19.8125 36.75 19.554688 37.003906 19.238281 37.003906 Z M 1.46875 35.859375 L 18.664062 35.859375 L 18.664062 12.359375 L 1.46875 12.359375 Z M 1.46875 35.859375 " fill-opacity="1" fill-rule="nonzero"/></g><path fill="#ffffff" d="M 10.066406 32.992188 C 6.589844 32.992188 3.761719 30.164062 3.761719 26.6875 C 3.761719 23.210938 6.589844 20.382812 10.066406 20.382812 C 13.542969 20.382812 16.371094 23.210938 16.371094 26.6875 C 16.371094 30.164062 13.542969 32.992188 10.066406 32.992188 Z M 10.066406 21.53125 C 7.222656 21.53125 4.910156 23.84375 4.910156 26.6875 C 4.910156 29.53125 7.222656 31.847656 10.066406 31.847656 C 12.910156 31.847656 15.226562 29.53125 15.226562 26.6875 C 15.226562 23.84375 12.910156 21.53125 10.066406 21.53125 Z M 10.066406 21.53125 " fill-opacity="1" fill-rule="nonzero"/><path fill="#ffffff" d="M 10.066406 29.554688 C 8.488281 29.554688 7.203125 28.269531 7.203125 26.6875 C 7.203125 25.109375 8.488281 23.824219 10.066406 23.824219 C 11.648438 23.824219 12.933594 25.109375 12.933594 26.6875 C 12.933594 28.269531 11.648438 29.554688 10.066406 29.554688 Z M 10.066406 24.96875 C 9.121094 24.96875 8.347656 25.742188 8.347656 26.6875 C 8.347656 27.636719 9.121094 28.410156 10.066406 28.410156 C 11.015625 28.410156 11.789062 27.636719 11.789062 26.6875 C 11.789062 25.742188 11.015625 24.96875 10.066406 24.96875 Z M 10.066406 24.96875 " fill-opacity="1" fill-rule="nonzero"/><g clip-path="url(#bf68062ace)"><path fill="#ffffff" d="M 19.238281 16.945312 L 0.898438 16.945312 C 0.582031 16.945312 0.324219 16.6875 0.324219 16.371094 C 0.324219 16.054688 0.582031 15.796875 0.898438 15.796875 L 19.238281 15.796875 C 19.554688 15.796875 19.8125 16.054688 19.8125 16.371094 C 19.8125 16.6875 19.554688 16.945312 19.238281 16.945312 Z M 19.238281 16.945312 " fill-opacity="1" fill-rule="nonzero"/></g><path fill="#ffffff" d="M 16.945312 14.652344 L 10.640625 14.652344 C 10.324219 14.652344 10.066406 14.394531 10.066406 14.078125 C 10.066406 13.761719 10.324219 13.507812 10.640625 13.507812 L 16.945312 13.507812 C 17.261719 13.507812 17.519531 13.761719 17.519531 14.078125 C 17.519531 14.394531 17.261719 14.652344 16.945312 14.652344 Z M 16.945312 14.652344 " fill-opacity="1" fill-rule="nonzero"/><path fill="#ffffff" d="M 3.761719 14.652344 L 3.191406 14.652344 C 2.875 14.652344 2.617188 14.394531 2.617188 14.078125 C 2.617188 13.761719 2.875 13.507812 3.191406 13.507812 L 3.761719 13.507812 C 4.078125 13.507812 4.335938 13.761719 4.335938 14.078125 C 4.335938 14.394531 4.078125 14.652344 3.761719 14.652344 Z M 3.761719 14.652344 " fill-opacity="1" fill-rule="nonzero"/><path fill="#ffffff" d="M 6.628906 14.652344 L 6.054688 14.652344 C 5.738281 14.652344 5.480469 14.394531 5.480469 14.078125 C 5.480469 13.761719 5.738281 13.507812 6.054688 13.507812 L 6.628906 13.507812 C 6.945312 13.507812 7.203125 13.761719 7.203125 14.078125 C 7.203125 14.394531 6.945312 14.652344 6.628906 14.652344 Z M 6.628906 14.652344 " fill-opacity="1" fill-rule="nonzero"/><g clip-path="url(#e592b4f672)"><path fill="#ffffff" d="M 36.433594 2.902344 L 0.898438 2.902344 C 0.582031 2.902344 0.324219 2.644531 0.324219 2.328125 C 0.324219 2.011719 0.582031 1.757812 0.898438 1.757812 L 36.433594 1.757812 C 36.75 1.757812 37.007812 2.011719 37.007812 2.328125 C 37.007812 2.644531 36.75 2.902344 36.433594 2.902344 Z M 36.433594 2.902344 " fill-opacity="1" fill-rule="nonzero"/></g><path fill="#ffffff" d="M 34.140625 11.785156 L 26.117188 11.785156 C 25.800781 11.785156 25.542969 11.53125 25.542969 11.214844 L 25.542969 2.328125 C 25.542969 2.011719 25.800781 1.757812 26.117188 1.757812 L 34.140625 1.757812 C 34.457031 1.757812 34.714844 2.011719 34.714844 2.328125 L 34.714844 11.214844 C 34.714844 11.53125 34.457031 11.785156 34.140625 11.785156 Z M 26.691406 10.640625 L 33.566406 10.640625 L 33.566406 2.902344 L 26.691406 2.902344 Z M 26.691406 10.640625 " fill-opacity="1" fill-rule="nonzero"/><g clip-path="url(#b933094169)"><path fill="#ffffff" d="M 0.898438 4.046875 C 0.582031 4.046875 0.324219 3.792969 0.324219 3.476562 L 0.324219 1.183594 C 0.324219 0.867188 0.582031 0.609375 0.898438 0.609375 C 1.214844 0.609375 1.46875 0.867188 1.46875 1.183594 L 1.46875 3.476562 C 1.46875 3.792969 1.214844 4.046875 0.898438 4.046875 Z M 0.898438 4.046875 " fill-opacity="1" fill-rule="nonzero"/></g><g clip-path="url(#8a10d6f116)"><path fill="#ffffff" d="M 36.433594 4.046875 C 36.117188 4.046875 35.859375 3.792969 35.859375 3.476562 L 35.859375 1.183594 C 35.859375 0.867188 36.117188 0.609375 36.433594 0.609375 C 36.75 0.609375 37.007812 0.867188 37.007812 1.183594 L 37.007812 3.476562 C 37.007812 3.792969 36.75 4.046875 36.433594 4.046875 Z M 36.433594 4.046875 " fill-opacity="1" fill-rule="nonzero"/></g><path fill="#ffffff" d="M 12.359375 10.355469 L 2.617188 10.355469 C 2.300781 10.355469 2.042969 10.097656 2.042969 9.78125 L 2.042969 8.0625 C 2.042969 7.84375 2.164062 7.644531 2.359375 7.546875 L 6.644531 5.40625 C 6.75 4.375 7.292969 3.839844 7.96875 3.183594 L 8.003906 3.148438 C 8.242188 2.914062 8.367188 2.589844 8.34375 2.253906 C 8.3125 1.691406 7.839844 1.21875 7.277344 1.183594 C 6.953125 1.164062 6.648438 1.273438 6.417969 1.492188 C 6.183594 1.710938 6.054688 2.007812 6.054688 2.328125 C 6.054688 2.644531 5.800781 2.902344 5.480469 2.902344 C 5.164062 2.902344 4.910156 2.644531 4.910156 2.328125 C 4.910156 1.699219 5.171875 1.089844 5.632812 0.65625 C 6.097656 0.21875 6.707031 0 7.347656 0.0429688 C 8.496094 0.113281 9.417969 1.035156 9.488281 2.183594 C 9.53125 2.851562 9.28125 3.503906 8.804688 3.96875 L 8.769531 4.003906 C 8.183594 4.574219 7.882812 4.867188 7.800781 5.40625 L 12.59375 7.535156 C 12.800781 7.628906 12.933594 7.835938 12.933594 8.0625 L 12.933594 9.78125 C 12.933594 10.097656 12.675781 10.355469 12.359375 10.355469 Z M 3.191406 9.207031 L 11.789062 9.207031 L 11.789062 8.433594 L 7.214844 6.402344 L 3.191406 8.414062 Z M 3.191406 9.207031 " fill-opacity="1" fill-rule="nonzero"/><path fill="#ffffff" d="M 23.824219 10.355469 L 14.078125 10.355469 C 13.761719 10.355469 13.507812 10.097656 13.507812 9.78125 L 13.507812 8.0625 C 13.507812 7.84375 13.628906 7.644531 13.824219 7.546875 L 18.109375 5.40625 C 18.210938 4.375 18.757812 3.839844 19.429688 3.183594 L 19.464844 3.148438 C 19.703125 2.914062 19.828125 2.589844 19.808594 2.253906 C 19.773438 1.691406 19.304688 1.21875 18.738281 1.183594 C 18.417969 1.164062 18.113281 1.273438 17.878906 1.492188 C 17.648438 1.710938 17.519531 2.007812 17.519531 2.328125 C 17.519531 2.644531 17.261719 2.902344 16.945312 2.902344 C 16.628906 2.902344 16.371094 2.644531 16.371094 2.328125 C 16.371094 1.699219 16.636719 1.089844 17.09375 0.65625 C 17.5625 0.21875 18.171875 0 18.808594 0.0429688 C 19.960938 0.113281 20.882812 1.035156 20.953125 2.183594 C 20.996094 2.851562 20.746094 3.503906 20.265625 3.96875 L 20.230469 4.003906 C 19.648438 4.574219 19.347656 4.867188 19.261719 5.40625 L 24.054688 7.535156 C 24.261719 7.628906 24.398438 7.835938 24.398438 8.0625 L 24.398438 9.78125 C 24.398438 10.097656 24.140625 10.355469 23.824219 10.355469 Z M 14.652344 9.207031 L 23.25 9.207031 L 23.25 8.433594 L 18.679688 6.402344 L 14.652344 8.414062 Z M 14.652344 9.207031 " fill-opacity="1" fill-rule="nonzero"/><g clip-path="url(#caa072c46c)"><path fill="#ffffff" d="M 34.140625 37.003906 L 23.824219 37.003906 C 23.53125 37.003906 23.285156 36.785156 23.253906 36.496094 L 22.109375 26.179688 C 22.089844 26.015625 22.140625 25.855469 22.25 25.734375 C 22.359375 25.613281 22.515625 25.542969 22.675781 25.542969 L 35.285156 25.542969 C 35.449219 25.542969 35.605469 25.613281 35.714844 25.734375 C 35.824219 25.855469 35.875 26.015625 35.855469 26.179688 L 34.710938 36.496094 C 34.679688 36.785156 34.433594 37.003906 34.140625 37.003906 Z M 24.335938 35.859375 L 33.628906 35.859375 L 34.648438 26.6875 L 23.316406 26.6875 Z M 24.335938 35.859375 " fill-opacity="1" fill-rule="nonzero"/></g><g clip-path="url(#39f2d2fb1c)"><path fill="#ffffff" d="M 35.285156 26.6875 L 22.675781 26.6875 C 21.730469 26.6875 20.957031 25.917969 20.957031 24.96875 C 20.957031 24.019531 21.730469 23.25 22.675781 23.25 L 35.285156 23.25 C 36.234375 23.25 37.007812 24.019531 37.007812 24.96875 C 37.007812 25.917969 36.234375 26.6875 35.285156 26.6875 Z M 22.675781 24.394531 C 22.363281 24.394531 22.105469 24.652344 22.105469 24.96875 C 22.105469 25.285156 22.363281 25.542969 22.675781 25.542969 L 35.285156 25.542969 C 35.601562 25.542969 35.859375 25.285156 35.859375 24.96875 C 35.859375 24.652344 35.601562 24.394531 35.285156 24.394531 Z M 22.675781 24.394531 " fill-opacity="1" fill-rule="nonzero"/></g><path fill="#ffffff" d="M 26.691406 35.285156 C 26.371094 35.285156 26.117188 35.03125 26.117188 34.714844 L 26.117188 27.835938 C 26.117188 27.519531 26.371094 27.261719 26.691406 27.261719 C 27.007812 27.261719 27.261719 27.519531 27.261719 27.835938 L 27.261719 34.714844 C 27.261719 35.03125 27.007812 35.285156 26.691406 35.285156 Z M 26.691406 35.285156 " fill-opacity="1" fill-rule="nonzero"/><path fill="#ffffff" d="M 28.980469 35.285156 C 28.664062 35.285156 28.410156 35.03125 28.410156 34.714844 L 28.410156 27.835938 C 28.410156 27.519531 28.664062 27.261719 28.980469 27.261719 C 29.296875 27.261719 29.554688 27.519531 29.554688 27.835938 L 29.554688 34.714844 C 29.554688 35.03125 29.296875 35.285156 28.980469 35.285156 Z M 28.980469 35.285156 " fill-opacity="1" fill-rule="nonzero"/><path fill="#ffffff" d="M 31.273438 35.285156 C 30.957031 35.285156 30.703125 35.03125 30.703125 34.714844 L 30.703125 27.835938 C 30.703125 27.519531 30.957031 27.261719 31.273438 27.261719 C 31.589844 27.261719 31.847656 27.519531 31.847656 27.835938 L 31.847656 34.714844 C 31.847656 35.03125 31.589844 35.285156 31.273438 35.285156 Z M 31.273438 35.285156 " fill-opacity="1" fill-rule="nonzero"/><path fill="#ffffff" d="M 32.421875 24.394531 L 27.835938 24.394531 C 26.886719 24.394531 26.117188 23.625 26.117188 22.675781 C 26.117188 21.726562 26.886719 20.957031 27.835938 20.957031 L 32.421875 20.957031 C 33.371094 20.957031 34.140625 21.726562 34.140625 22.675781 C 34.140625 23.625 33.371094 24.394531 32.421875 24.394531 Z M 27.835938 22.101562 C 27.519531 22.101562 27.261719 22.359375 27.261719 22.675781 C 27.261719 22.992188 27.519531 23.25 27.835938 23.25 L 32.421875 23.25 C 32.738281 23.25 32.996094 22.992188 32.996094 22.675781 C 32.996094 22.359375 32.738281 22.101562 32.421875 22.101562 Z M 27.835938 22.101562 " fill-opacity="1" fill-rule="nonzero"/><path fill="#ffffff" d="M 30.703125 22.101562 L 26.117188 22.101562 C 25.167969 22.101562 24.398438 21.332031 24.398438 20.382812 C 24.398438 19.4375 25.167969 18.664062 26.117188 18.664062 L 30.703125 18.664062 C 31.648438 18.664062 32.421875 19.4375 32.421875 20.382812 C 32.421875 21.332031 31.648438 22.101562 30.703125 22.101562 Z M 26.117188 19.8125 C 25.800781 19.8125 25.542969 20.066406 25.542969 20.382812 C 25.542969 20.699219 25.800781 20.957031 26.117188 20.957031 L 30.703125 20.957031 C 31.019531 20.957031 31.273438 20.699219 31.273438 20.382812 C 31.273438 20.066406 31.019531 19.8125 30.703125 19.8125 Z M 26.117188 19.8125 " fill-opacity="1" fill-rule="nonzero"/></svg>