<svg xmlns="http://www.w3.org/2000/svg" xmlns:xlink="http://www.w3.org/1999/xlink" width="50" zoomAndPan="magnify" viewBox="0 0 37.5 37.499999" height="50" preserveAspectRatio="xMidYMid meet" version="1.0"><defs><clipPath id="1355699437"><path d="M 1 0 L 37.007812 0 L 37.007812 33 L 1 33 Z M 1 0 " clip-rule="nonzero"/></clipPath><clipPath id="c55702d647"><path d="M 11 35 L 13 35 L 13 37.007812 L 11 37.007812 Z M 11 35 " clip-rule="nonzero"/></clipPath><clipPath id="6ad8fa3464"><path d="M 14 35 L 16 35 L 16 37.007812 L 14 37.007812 Z M 14 35 " clip-rule="nonzero"/></clipPath><clipPath id="6a64f8f7d9"><path d="M 16 35 L 18 35 L 18 37.007812 L 16 37.007812 Z M 16 35 " clip-rule="nonzero"/></clipPath><clipPath id="fda11c8697"><path d="M 19 35 L 21 35 L 21 37.007812 L 19 37.007812 Z M 19 35 " clip-rule="nonzero"/></clipPath><clipPath id="d7443d5adb"><path d="M 21 35 L 23 35 L 23 37.007812 L 21 37.007812 Z M 21 35 " clip-rule="nonzero"/></clipPath><clipPath id="7be87b63c0"><path d="M 24 35 L 26 35 L 26 37.007812 L 24 37.007812 Z M 24 35 " clip-rule="nonzero"/></clipPath></defs><path fill="#ffffff" d="M 10.484375 20.96875 C 10.484375 21.652344 9.933594 22.203125 9.25 22.203125 C 8.570312 22.203125 8.019531 21.652344 8.019531 20.96875 C 8.019531 20.289062 8.570312 19.738281 9.25 19.738281 C 9.933594 19.738281 10.484375 20.289062 10.484375 20.96875 " fill-opacity="1" fill-rule="nonzero"/><path fill="#ffffff" d="M 17.886719 25.289062 C 17.886719 25.96875 17.335938 26.519531 16.652344 26.519531 C 15.972656 26.519531 15.417969 25.96875 15.417969 25.289062 C 15.417969 24.605469 15.972656 24.054688 16.652344 24.054688 C 17.335938 24.054688 17.886719 24.605469 17.886719 25.289062 " fill-opacity="1" fill-rule="nonzero"/><path fill="#ffffff" d="M 25.289062 17.886719 C 25.289062 18.566406 24.734375 19.121094 24.054688 19.121094 C 23.371094 19.121094 22.820312 18.566406 22.820312 17.886719 C 22.820312 17.203125 23.371094 16.652344 24.054688 16.652344 C 24.734375 16.652344 25.289062 17.203125 25.289062 17.886719 " fill-opacity="1" fill-rule="nonzero"/><path fill="#ffffff" d="M 2.285156 28.808594 L 1.417969 27.933594 L 8.894531 20.53125 C 9.09375 20.335938 9.398438 20.296875 9.640625 20.441406 L 16.554688 24.515625 L 23.617188 17.449219 C 23.84375 17.222656 24.203125 17.210938 24.449219 17.410156 L 31.851562 23.578125 L 31.058594 24.527344 L 24.09375 18.71875 L 17.089844 25.722656 C 16.890625 25.925781 16.582031 25.960938 16.339844 25.816406 L 9.425781 21.742188 L 2.285156 28.808594 " fill-opacity="1" fill-rule="nonzero"/><path fill="#ffffff" d="M 10.484375 12.953125 C 10.484375 13.632812 9.933594 14.1875 9.25 14.1875 C 8.570312 14.1875 8.019531 13.632812 8.019531 12.953125 C 8.019531 12.269531 8.570312 11.71875 9.25 11.71875 C 9.933594 11.71875 10.484375 12.269531 10.484375 12.953125 " fill-opacity="1" fill-rule="nonzero"/><path fill="#ffffff" d="M 17.269531 5.550781 C 17.269531 6.234375 16.71875 6.785156 16.035156 6.785156 C 15.355469 6.785156 14.800781 6.234375 14.800781 5.550781 C 14.800781 4.871094 15.355469 4.316406 16.035156 4.316406 C 16.71875 4.316406 17.269531 4.871094 17.269531 5.550781 " fill-opacity="1" fill-rule="nonzero"/><path fill="#ffffff" d="M 25.289062 8.019531 C 25.289062 8.699219 24.734375 9.25 24.054688 9.25 C 23.371094 9.25 22.820312 8.699219 22.820312 8.019531 C 22.820312 7.335938 23.371094 6.785156 24.054688 6.785156 C 24.734375 6.785156 25.289062 7.335938 25.289062 8.019531 " fill-opacity="1" fill-rule="nonzero"/><path fill="#ffffff" d="M 2.265625 20.195312 L 1.4375 19.277344 L 8.761719 12.648438 L 15.582031 5.210938 C 15.742188 5.039062 15.984375 4.96875 16.210938 5.039062 L 23.976562 7.351562 L 31.144531 3.167969 L 31.765625 4.234375 L 24.363281 8.550781 C 24.21875 8.636719 24.042969 8.65625 23.878906 8.609375 L 16.230469 6.328125 L 9.628906 13.523438 L 2.265625 20.195312 " fill-opacity="1" fill-rule="nonzero"/><g clip-path="url(#1355699437)"><path fill="#ffffff" d="M 37.007812 32.074219 L 1.851562 32.074219 C 1.511719 32.074219 1.234375 31.796875 1.234375 31.457031 L 1.234375 0 L 2.46875 0 L 2.46875 30.839844 L 37.007812 30.839844 L 37.007812 32.074219 " fill-opacity="1" fill-rule="nonzero"/></g><path fill="#ffffff" d="M 1.851562 24.671875 L 0 24.671875 L 0 23.4375 L 1.851562 23.4375 L 1.851562 24.671875 " fill-opacity="1" fill-rule="nonzero"/><path fill="#ffffff" d="M 1.851562 17.269531 L 0 17.269531 L 0 16.035156 L 1.851562 16.035156 L 1.851562 17.269531 " fill-opacity="1" fill-rule="nonzero"/><path fill="#ffffff" d="M 1.851562 9.867188 L 0 9.867188 L 0 8.636719 L 1.851562 8.636719 L 1.851562 9.867188 " fill-opacity="1" fill-rule="nonzero"/><path fill="#ffffff" d="M 24.671875 33.304688 L 23.4375 33.304688 L 23.4375 31.457031 L 24.671875 31.457031 L 24.671875 33.304688 " fill-opacity="1" fill-rule="nonzero"/><path fill="#ffffff" d="M 17.269531 33.304688 L 16.035156 33.304688 L 16.035156 31.457031 L 17.269531 31.457031 L 17.269531 33.304688 " fill-opacity="1" fill-rule="nonzero"/><path fill="#ffffff" d="M 9.867188 33.304688 L 8.636719 33.304688 L 8.636719 31.457031 L 9.867188 31.457031 L 9.867188 33.304688 " fill-opacity="1" fill-rule="nonzero"/><path fill="#ffffff" d="M 32.074219 33.304688 L 30.839844 33.304688 L 30.839844 31.457031 L 32.074219 31.457031 L 32.074219 33.304688 " fill-opacity="1" fill-rule="nonzero"/><g clip-path="url(#c55702d647)"><path fill="#ffffff" d="M 12.953125 37.007812 L 11.71875 37.007812 L 11.71875 35.773438 L 12.953125 35.773438 L 12.953125 37.007812 " fill-opacity="1" fill-rule="nonzero"/></g><g clip-path="url(#6ad8fa3464)"><path fill="#ffffff" d="M 15.417969 37.007812 L 14.1875 37.007812 L 14.1875 35.773438 L 15.417969 35.773438 L 15.417969 37.007812 " fill-opacity="1" fill-rule="nonzero"/></g><g clip-path="url(#6a64f8f7d9)"><path fill="#ffffff" d="M 17.886719 37.007812 L 16.652344 37.007812 L 16.652344 35.773438 L 17.886719 35.773438 L 17.886719 37.007812 " fill-opacity="1" fill-rule="nonzero"/></g><g clip-path="url(#fda11c8697)"><path fill="#ffffff" d="M 20.355469 37.007812 L 19.121094 37.007812 L 19.121094 35.773438 L 20.355469 35.773438 L 20.355469 37.007812 " fill-opacity="1" fill-rule="nonzero"/></g><g clip-path="url(#d7443d5adb)"><path fill="#ffffff" d="M 22.820312 37.007812 L 21.585938 37.007812 L 21.585938 35.773438 L 22.820312 35.773438 L 22.820312 37.007812 " fill-opacity="1" fill-rule="nonzero"/></g><g clip-path="url(#7be87b63c0)"><path fill="#ffffff" d="M 25.289062 37.007812 L 24.054688 37.007812 L 24.054688 35.773438 L 25.289062 35.773438 L 25.289062 37.007812 " fill-opacity="1" fill-rule="nonzero"/></g><path fill="#ffffff" d="M 1.851562 2.46875 L 0 2.46875 L 0 1.234375 L 1.851562 1.234375 L 1.851562 2.46875 " fill-opacity="1" fill-rule="nonzero"/><path fill="#ffffff" d="M 32.6875 24.054688 C 32.6875 24.734375 32.136719 25.289062 31.457031 25.289062 C 30.773438 25.289062 30.222656 24.734375 30.222656 24.054688 C 30.222656 23.371094 30.773438 22.820312 31.457031 22.820312 C 32.136719 22.820312 32.6875 23.371094 32.6875 24.054688 " fill-opacity="1" fill-rule="nonzero"/><path fill="#ffffff" d="M 32.6875 3.699219 C 32.6875 4.382812 32.136719 4.933594 31.457031 4.933594 C 30.773438 4.933594 30.222656 4.382812 30.222656 3.699219 C 30.222656 3.019531 30.773438 2.46875 31.457031 2.46875 C 32.136719 2.46875 32.6875 3.019531 32.6875 3.699219 " fill-opacity="1" fill-rule="nonzero"/></svg>