<svg xmlns="http://www.w3.org/2000/svg" xmlns:xlink="http://www.w3.org/1999/xlink" width="50" zoomAndPan="magnify" viewBox="0 0 37.5 37.499999" height="50" preserveAspectRatio="xMidYMid meet" version="1.0"><defs><clipPath id="8e7dc75a20"><path d="M 1.75 0 L 35.054688 0 L 35.054688 37.007812 L 1.75 37.007812 Z M 1.75 0 " clip-rule="nonzero"/></clipPath></defs><g clip-path="url(#8e7dc75a20)"><path fill="#ffffff" d="M 34.832031 8.199219 C 34.566406 7.929688 34.210938 7.78125 33.832031 7.78125 L 29.101562 7.78125 C 28.976562 7.78125 28.867188 7.859375 28.824219 7.976562 L 26.953125 13.378906 L 25.960938 13.378906 C 26.183594 12.511719 26.300781 11.613281 26.300781 10.699219 C 26.300781 4.800781 21.542969 0 15.691406 0 C 9.835938 0 5.074219 4.800781 5.074219 10.699219 C 5.074219 11.609375 5.195312 12.507812 5.417969 13.378906 L 2.789062 13.378906 C 2.75 13.378906 2.710938 13.386719 2.675781 13.402344 C 2.121094 13.636719 1.757812 14.179688 1.757812 14.789062 C 1.757812 15.34375 2.0625 15.84375 2.539062 16.101562 L 4.707031 24.855469 L 4.707031 32.289062 C 3.921875 32.730469 3.421875 33.566406 3.421875 34.484375 C 3.421875 35.875 4.542969 37.007812 5.925781 37.007812 C 7.304688 37.007812 8.429688 35.875 8.429688 34.484375 C 8.429688 33.566406 7.925781 32.726562 7.136719 32.285156 L 7.136719 30.132812 L 24.238281 30.132812 L 24.238281 32.285156 C 23.449219 32.726562 22.949219 33.566406 22.949219 34.484375 C 22.949219 35.875 24.070312 37.007812 25.453125 37.007812 C 26.832031 37.007812 27.957031 35.875 27.957031 34.484375 C 27.957031 33.566406 27.457031 32.730469 26.671875 32.289062 L 26.671875 24.855469 L 28.871094 15.988281 L 30.867188 10.621094 L 33.832031 10.621094 C 34.609375 10.621094 35.242188 9.984375 35.242188 9.203125 C 35.242188 8.820312 35.09375 8.464844 34.832031 8.199219 Z M 5.664062 10.699219 C 5.664062 5.125 10.160156 0.585938 15.691406 0.585938 C 21.21875 0.585938 25.714844 5.125 25.714844 10.699219 C 25.714844 11.613281 25.589844 12.511719 25.355469 13.378906 L 15.863281 13.378906 L 21.878906 6.839844 C 21.984375 6.722656 21.980469 6.535156 21.859375 6.425781 L 20.238281 4.910156 C 20.183594 4.855469 20.105469 4.824219 20.027344 4.832031 C 19.949219 4.835938 19.875 4.867188 19.824219 4.925781 L 13.554688 11.742188 L 12.015625 9.230469 C 11.976562 9.164062 11.910156 9.117188 11.832031 9.097656 C 11.757812 9.082031 11.675781 9.09375 11.609375 9.132812 L 9.726562 10.304688 C 9.589844 10.390625 9.550781 10.570312 9.632812 10.710938 L 11.269531 13.378906 L 6.027344 13.378906 C 5.789062 12.507812 5.664062 11.609375 5.664062 10.699219 Z M 9.867188 16.195312 L 9.867188 18.582031 L 6.769531 18.582031 L 6.769531 16.195312 Z M 13.550781 16.195312 L 13.550781 18.582031 L 10.457031 18.582031 L 10.457031 16.195312 Z M 15.691406 16.195312 L 17.238281 16.195312 L 17.238281 18.582031 L 14.140625 18.582031 L 14.140625 16.195312 Z M 20.921875 16.195312 L 20.921875 18.582031 L 17.824219 18.582031 L 17.824219 16.195312 Z M 24.609375 16.195312 L 24.609375 18.582031 L 21.511719 18.582031 L 21.511719 16.195312 Z M 26.886719 21.554688 L 25.195312 21.554688 L 25.195312 19.171875 L 27.476562 19.171875 Z M 26.042969 34.484375 C 26.042969 34.8125 25.777344 35.078125 25.453125 35.078125 C 25.125 35.078125 24.863281 34.8125 24.863281 34.484375 C 24.863281 34.152344 25.125 33.882812 25.453125 33.882812 C 25.777344 33.882812 26.042969 34.152344 26.042969 34.484375 Z M 26.148438 24.527344 L 25.195312 24.527344 L 25.195312 22.140625 L 26.738281 22.140625 Z M 5.230469 24.527344 L 4.640625 22.140625 L 6.183594 22.140625 L 6.183594 24.527344 Z M 6.519531 34.484375 C 6.519531 34.8125 6.25 35.078125 5.925781 35.078125 C 5.597656 35.078125 5.332031 34.8125 5.332031 34.484375 C 5.332031 34.152344 5.597656 33.882812 5.925781 33.882812 C 6.25 33.882812 6.519531 34.152344 6.519531 34.484375 Z M 17.824219 24.527344 L 17.824219 22.140625 L 20.921875 22.140625 L 20.921875 24.527344 Z M 15.691406 24.527344 L 14.140625 24.527344 L 14.140625 22.140625 L 17.238281 22.140625 L 17.238281 24.527344 Z M 10.457031 24.527344 L 10.457031 22.140625 L 13.550781 22.140625 L 13.550781 24.527344 Z M 17.824219 21.554688 L 17.824219 19.171875 L 20.921875 19.171875 L 20.921875 21.554688 Z M 17.238281 21.554688 L 14.140625 21.554688 L 14.140625 19.171875 L 17.238281 19.171875 Z M 13.550781 21.554688 L 10.457031 21.554688 L 10.457031 19.171875 L 13.550781 19.171875 Z M 9.867188 21.554688 L 6.769531 21.554688 L 6.769531 19.171875 L 9.867188 19.171875 Z M 6.183594 21.554688 L 4.496094 21.554688 L 3.902344 19.171875 L 6.183594 19.171875 Z M 6.769531 22.140625 L 9.867188 22.140625 L 9.867188 24.527344 L 6.769531 24.527344 Z M 7.136719 25.113281 L 24.238281 25.113281 L 24.238281 27.6875 L 7.136719 27.6875 Z M 24.535156 24.527344 L 21.511719 24.527344 L 21.511719 22.140625 L 24.609375 22.140625 L 24.609375 24.527344 Z M 24.609375 21.554688 L 21.511719 21.554688 L 21.511719 19.171875 L 24.609375 19.171875 Z M 6.183594 18.582031 L 3.757812 18.582031 L 3.164062 16.195312 L 6.183594 16.195312 Z M 6.84375 29.542969 C 6.679688 29.542969 6.550781 29.675781 6.550781 29.835938 L 6.550781 32.046875 C 6.140625 31.9375 5.703125 31.941406 5.296875 32.046875 L 5.296875 25.113281 L 6.550781 25.113281 L 6.550781 27.980469 C 6.550781 28.144531 6.679688 28.273438 6.84375 28.273438 L 24.535156 28.273438 C 24.695312 28.273438 24.828125 28.144531 24.828125 27.980469 L 24.828125 25.113281 L 26.085938 25.113281 L 26.085938 32.046875 C 25.675781 31.9375 25.238281 31.9375 24.828125 32.046875 L 24.828125 29.835938 C 24.828125 29.675781 24.695312 29.542969 24.535156 29.542969 Z M 27.621094 18.582031 L 25.195312 18.582031 L 25.195312 16.195312 L 28.214844 16.195312 Z M 30.664062 10.03125 C 30.539062 10.03125 30.429688 10.109375 30.386719 10.222656 L 28.386719 15.605469 L 2.859375 15.605469 C 2.550781 15.457031 2.347656 15.136719 2.347656 14.789062 C 2.347656 14.4375 2.542969 14.121094 2.855469 13.964844 L 27.160156 13.964844 C 27.285156 13.964844 27.398438 13.886719 27.4375 13.769531 L 29.3125 8.367188 L 31.226562 8.367188 L 31.226562 10.03125 Z M 30.664062 10.03125 " fill-opacity="1" fill-rule="nonzero"/></g></svg>