<svg xmlns="http://www.w3.org/2000/svg" xmlns:xlink="http://www.w3.org/1999/xlink" width="50" zoomAndPan="magnify" viewBox="0 0 37.5 37.499999" height="50" preserveAspectRatio="xMidYMid meet" version="1.0"><defs><clipPath id="0b7579d25c"><path d="M 0.648438 0 L 36.175781 0 L 36.175781 37 L 0.648438 37 Z M 0.648438 0 " clip-rule="nonzero"/></clipPath></defs><g clip-path="url(#0b7579d25c)"><path fill="#ffffff" d="M 36.085938 34.039062 L 33.792969 32.136719 C 33.554688 31.9375 33.203125 31.972656 33.003906 32.207031 C 32.808594 32.445312 32.839844 32.800781 33.078125 32.996094 L 34.019531 33.777344 C 34.070312 33.820312 34.039062 33.910156 33.96875 33.910156 L 28.257812 33.910156 C 27.945312 33.910156 27.695312 34.160156 27.695312 34.46875 C 27.695312 34.777344 27.945312 35.03125 28.257812 35.03125 L 33.972656 35.03125 C 34.042969 35.03125 34.074219 35.117188 34.019531 35.160156 L 33.078125 35.941406 C 32.839844 36.140625 32.804688 36.492188 33.003906 36.730469 C 33.199219 36.96875 33.554688 37 33.792969 36.804688 L 36.046875 34.9375 L 36.121094 34.867188 C 36.355469 34.632812 36.339844 34.25 36.085938 34.039062 Z M 19.777344 3.394531 L 16.941406 5.886719 C 16.910156 5.917969 16.863281 5.914062 16.835938 5.882812 L 15.730469 4.628906 C 15.523438 4.398438 15.171875 4.378906 14.9375 4.582031 C 14.707031 4.789062 14.6875 5.140625 14.890625 5.371094 L 16.417969 7.097656 C 16.625 7.328125 16.976562 7.351562 17.207031 7.144531 L 20.515625 4.234375 C 20.746094 4.03125 20.769531 3.679688 20.5625 3.445312 C 20.359375 3.214844 20.007812 3.191406 19.777344 3.394531 Z M 21.902344 5.101562 C 21.902344 7.296875 20.117188 9.082031 17.921875 9.082031 C 15.726562 9.082031 13.941406 7.292969 13.941406 5.101562 C 13.941406 2.90625 15.726562 1.121094 17.921875 1.121094 C 20.117188 1.121094 21.902344 2.90625 21.902344 5.101562 Z M 18.246094 35.109375 L 1.207031 35.109375 C 0.898438 35.109375 0.644531 34.859375 0.644531 34.550781 C 0.644531 34.242188 0.898438 33.992188 1.207031 33.992188 L 18.246094 33.992188 C 26.152344 33.992188 32.585938 27.558594 32.585938 19.65625 C 32.585938 13.582031 28.679688 8.125 23.003906 6.125 C 22.960938 6.113281 22.914062 6.136719 22.90625 6.179688 C 22.410156 8.476562 20.363281 10.199219 17.921875 10.199219 C 15.558594 10.199219 13.570312 8.585938 12.992188 6.402344 C 12.980469 6.355469 12.929688 6.335938 12.890625 6.351562 C 7.488281 8.527344 3.910156 13.78125 3.910156 19.65625 C 3.910156 23.898438 5.746094 27.847656 8.96875 30.582031 C 9.015625 30.621094 9.089844 30.585938 9.089844 30.523438 L 9.0625 29.027344 C 9.058594 28.71875 9.304688 28.460938 9.613281 28.457031 C 9.921875 28.453125 10.179688 28.699219 10.183594 29.007812 L 10.234375 31.988281 C 10.242188 32.355469 9.925781 32.609375 9.53125 32.542969 L 6.640625 32.050781 C 6.335938 31.996094 6.132812 31.707031 6.183594 31.402344 C 6.238281 31.097656 6.527344 30.894531 6.832031 30.945312 L 7.644531 31.085938 C 7.71875 31.097656 7.761719 31.007812 7.707031 30.957031 C 4.570312 28.039062 2.792969 23.992188 2.792969 19.65625 C 2.792969 13.214844 6.785156 7.464844 12.773438 5.199219 C 12.824219 5.175781 12.820312 5.132812 12.820312 5.101562 C 12.820312 2.289062 15.109375 0 17.921875 0 C 20.664062 0 22.910156 2.179688 23.015625 4.898438 C 23.015625 4.929688 23.039062 4.957031 23.066406 4.964844 C 26.023438 5.9375 28.671875 7.820312 30.5625 10.3125 C 32.617188 13.019531 33.703125 16.25 33.703125 19.65625 C 33.703125 28.175781 26.769531 35.109375 18.246094 35.109375 Z M 14.902344 13.410156 L 14.027344 13.917969 C 13.980469 13.945312 13.976562 14.015625 14.027344 14.046875 L 21.179688 18.175781 C 21.355469 18.277344 21.460938 18.460938 21.460938 18.660156 L 21.460938 23.09375 C 21.460938 23.152344 21.523438 23.1875 21.574219 23.160156 L 22.449219 22.652344 C 22.472656 22.640625 22.488281 22.617188 22.488281 22.589844 L 22.488281 17.789062 C 22.488281 17.761719 22.472656 17.738281 22.449219 17.722656 L 14.980469 13.410156 C 14.957031 13.398438 14.929688 13.398438 14.902344 13.410156 Z M 20.304688 19.695312 C 20.28125 19.679688 20.253906 19.679688 20.230469 19.695312 L 18.519531 20.683594 C 18.496094 20.695312 18.480469 20.71875 18.480469 20.746094 L 18.480469 28.640625 C 18.480469 28.699219 18.542969 28.734375 18.59375 28.707031 L 25.429688 24.757812 C 25.453125 24.746094 25.464844 24.722656 25.464844 24.695312 L 25.464844 16.800781 C 25.464844 16.742188 25.402344 16.707031 25.355469 16.734375 L 23.644531 17.722656 C 23.621094 17.738281 23.605469 17.761719 23.605469 17.789062 L 23.605469 22.957031 C 23.605469 23.15625 23.5 23.339844 23.328125 23.441406 L 21.179688 24.679688 C 20.808594 24.894531 20.339844 24.625 20.339844 24.195312 L 20.339844 19.761719 C 20.339844 19.730469 20.328125 19.707031 20.304688 19.695312 Z M 24.796875 15.636719 L 17.960938 11.691406 C 17.933594 11.675781 17.90625 11.675781 17.882812 11.691406 L 16.171875 12.679688 C 16.125 12.707031 16.121094 12.777344 16.171875 12.808594 L 23.007812 16.753906 C 23.03125 16.769531 23.058594 16.769531 23.082031 16.753906 L 24.796875 15.765625 C 24.84375 15.738281 24.84375 15.667969 24.796875 15.636719 Z M 12.757812 14.648438 L 11.050781 15.636719 C 11 15.667969 11 15.738281 11.050781 15.765625 L 17.882812 19.714844 C 17.90625 19.726562 17.933594 19.726562 17.960938 19.714844 L 19.667969 18.726562 C 19.71875 18.695312 19.71875 18.625 19.667969 18.597656 L 12.835938 14.648438 C 12.808594 14.636719 12.785156 14.636719 12.757812 14.648438 Z M 10.488281 16.734375 C 10.4375 16.707031 10.375 16.742188 10.375 16.800781 L 10.375 24.695312 C 10.375 24.722656 10.390625 24.746094 10.414062 24.757812 L 17.25 28.707031 C 17.300781 28.734375 17.363281 28.699219 17.363281 28.640625 L 17.363281 20.746094 C 17.363281 20.71875 17.347656 20.695312 17.324219 20.683594 Z M 10.488281 16.734375 " fill-opacity="1" fill-rule="evenodd"/></g></svg>