<svg xmlns="http://www.w3.org/2000/svg" xmlns:xlink="http://www.w3.org/1999/xlink" width="50" zoomAndPan="magnify" viewBox="0 0 37.5 37.499999" height="50" preserveAspectRatio="xMidYMid meet" version="1.0"><defs><clipPath id="c8177850fa"><path d="M 0 0.878906 L 37 0.878906 L 37 36.40625 L 0 36.40625 Z M 0 0.878906 " clip-rule="nonzero"/></clipPath></defs><path fill="#ffffff" d="M 18.351562 17.15625 C 16.550781 17.15625 15.082031 18.621094 15.082031 20.425781 C 15.082031 22.226562 16.550781 23.695312 18.351562 23.695312 C 20.15625 23.695312 21.621094 22.226562 21.621094 20.425781 C 21.621094 18.621094 20.15625 17.15625 18.351562 17.15625 Z M 18.351562 23.097656 C 16.875 23.097656 15.675781 21.898438 15.675781 20.425781 C 15.675781 18.949219 16.875 17.75 18.351562 17.75 C 19.828125 17.75 21.027344 18.949219 21.027344 20.425781 C 21.027344 21.898438 19.828125 23.097656 18.351562 23.097656 Z M 18.351562 23.097656 " fill-opacity="1" fill-rule="nonzero"/><g clip-path="url(#c8177850fa)"><path fill="#ffffff" d="M 36.9375 9.351562 C 36.9375 6.863281 34.914062 4.839844 32.425781 4.839844 C 31.261719 4.839844 30.148438 5.289062 29.3125 6.085938 C 26.621094 2.769531 22.652344 0.875 18.371094 0.875 C 10.605469 0.875 4.285156 7.191406 4.285156 14.960938 C 4.285156 16.324219 4.480469 17.667969 4.863281 18.964844 C 4.429688 19.53125 4.191406 20.226562 4.191406 20.945312 C 4.191406 22.746094 5.65625 24.214844 7.460938 24.214844 C 7.554688 24.214844 7.644531 24.207031 7.742188 24.199219 C 8.257812 24.792969 8.820312 25.34375 9.425781 25.839844 C 6.84375 25.664062 4.355469 25.882812 2.015625 26.492188 C 0.871094 26.792969 0.0703125 27.832031 0.0703125 29.023438 L 0.0703125 35.820312 C 0.0703125 35.984375 0.203125 36.117188 0.367188 36.117188 L 36.378906 36.117188 C 36.542969 36.117188 36.675781 35.984375 36.675781 35.820312 L 36.675781 29.09375 C 36.675781 27.875 35.839844 26.824219 34.640625 26.546875 C 32.128906 25.960938 29.6875 25.710938 27.371094 25.800781 C 27.957031 25.3125 28.503906 24.78125 29.003906 24.203125 C 29.085938 24.210938 29.167969 24.214844 29.246094 24.214844 C 31.046875 24.214844 32.515625 22.746094 32.515625 20.945312 C 32.515625 20.246094 32.285156 19.5625 31.871094 19.003906 C 32.261719 17.695312 32.460938 16.335938 32.460938 14.960938 C 32.460938 14.597656 32.441406 14.230469 32.414062 13.867188 C 32.417969 13.867188 32.421875 13.867188 32.429688 13.867188 C 34.914062 13.867188 36.941406 11.839844 36.941406 9.351562 Z M 32.425781 5.429688 C 34.585938 5.429688 36.34375 7.191406 36.34375 9.351562 C 36.34375 11.511719 34.585938 13.269531 32.425781 13.269531 C 32.320312 13.269531 32.21875 13.265625 32.113281 13.253906 C 31.550781 13.214844 31.019531 13.054688 30.527344 12.777344 C 29.28125 12.085938 28.507812 10.773438 28.507812 9.351562 C 28.507812 8.949219 28.566406 8.550781 28.6875 8.175781 C 28.707031 8.109375 28.730469 8.042969 28.753906 7.976562 C 28.785156 7.890625 28.820312 7.808594 28.859375 7.726562 C 28.96875 7.492188 29.097656 7.265625 29.25 7.058594 C 29.328125 6.945312 29.417969 6.835938 29.511719 6.730469 C 30.25 5.90625 31.3125 5.429688 32.425781 5.429688 Z M 30.941406 13.613281 C 30.984375 13.628906 31.027344 13.644531 31.070312 13.65625 C 31.101562 13.667969 31.128906 13.675781 31.160156 13.683594 C 31.203125 13.695312 31.246094 13.707031 31.289062 13.71875 C 31.316406 13.726562 31.347656 13.734375 31.378906 13.742188 C 31.425781 13.753906 31.472656 13.761719 31.515625 13.769531 C 31.542969 13.777344 31.570312 13.78125 31.597656 13.785156 C 31.671875 13.800781 31.742188 13.8125 31.816406 13.820312 C 31.847656 14.199219 31.863281 14.578125 31.863281 14.957031 C 31.863281 16.15625 31.707031 17.339844 31.398438 18.484375 C 31.382812 18.472656 31.371094 18.464844 31.359375 18.453125 C 31.296875 18.402344 31.230469 18.351562 31.167969 18.300781 C 31.144531 18.285156 31.125 18.269531 31.101562 18.257812 C 31.019531 18.199219 30.9375 18.144531 30.847656 18.09375 C 30.835938 18.085938 30.820312 18.078125 30.804688 18.070312 C 30.730469 18.03125 30.648438 17.992188 30.570312 17.957031 C 30.546875 17.945312 30.519531 17.933594 30.496094 17.921875 C 30.488281 17.917969 30.480469 17.914062 30.472656 17.914062 C 30.707031 16.949219 30.828125 15.957031 30.828125 14.957031 C 30.828125 14.480469 30.800781 14.007812 30.746094 13.539062 C 30.785156 13.554688 30.820312 13.570312 30.855469 13.582031 C 30.882812 13.59375 30.914062 13.601562 30.945312 13.613281 Z M 25.988281 21.238281 C 25.988281 21.25 25.988281 21.261719 25.988281 21.273438 C 26 21.367188 26.011719 21.457031 26.03125 21.546875 C 26.03125 21.5625 26.035156 21.582031 26.039062 21.597656 C 26.058594 21.683594 26.078125 21.773438 26.105469 21.859375 C 26.109375 21.875 26.113281 21.886719 26.117188 21.902344 C 26.144531 21.992188 26.175781 22.078125 26.207031 22.164062 C 26.210938 22.171875 26.214844 22.179688 26.21875 22.1875 C 26.253906 22.273438 26.292969 22.359375 26.335938 22.441406 C 26.339844 22.449219 26.339844 22.453125 26.34375 22.457031 C 26.386719 22.542969 26.433594 22.621094 26.484375 22.703125 C 26.492188 22.714844 26.5 22.726562 26.507812 22.738281 C 26.558594 22.816406 26.613281 22.890625 26.667969 22.960938 C 26.679688 22.972656 26.6875 22.984375 26.699219 23 C 26.753906 23.070312 26.816406 23.140625 26.882812 23.207031 C 26.882812 23.210938 26.886719 23.214844 26.890625 23.21875 C 25.613281 24.535156 24.042969 25.542969 22.328125 26.152344 C 22.261719 26.140625 22.191406 26.128906 22.125 26.117188 C 22.023438 26.101562 21.917969 26.085938 21.816406 26.070312 C 21.734375 26.058594 21.652344 26.046875 21.570312 26.035156 C 21.488281 26.023438 21.40625 26.011719 21.324219 26.003906 C 21.308594 26 21.292969 26 21.277344 25.996094 C 21.191406 25.984375 21.105469 25.976562 21.019531 25.964844 C 20.925781 25.953125 20.832031 25.941406 20.738281 25.933594 C 20.648438 25.925781 20.5625 25.914062 20.472656 25.90625 C 20.382812 25.898438 20.292969 25.890625 20.203125 25.882812 C 20.113281 25.875 20.023438 25.867188 19.933594 25.863281 C 19.84375 25.855469 19.757812 25.847656 19.671875 25.84375 C 19.578125 25.835938 19.488281 25.832031 19.394531 25.824219 C 19.3125 25.820312 19.226562 25.816406 19.140625 25.8125 C 19.050781 25.808594 18.957031 25.804688 18.863281 25.800781 C 18.78125 25.796875 18.695312 25.796875 18.613281 25.792969 C 18.519531 25.792969 18.429688 25.789062 18.335938 25.789062 C 18.285156 25.789062 18.230469 25.785156 18.179688 25.785156 C 18.148438 25.785156 18.117188 25.785156 18.085938 25.785156 C 18.050781 25.785156 18.015625 25.785156 17.980469 25.785156 C 17.917969 25.785156 17.855469 25.785156 17.792969 25.789062 C 17.726562 25.789062 17.660156 25.789062 17.597656 25.789062 C 17.496094 25.789062 17.394531 25.792969 17.292969 25.796875 C 17.226562 25.796875 17.164062 25.796875 17.097656 25.800781 C 16.996094 25.804688 16.898438 25.808594 16.796875 25.816406 C 16.730469 25.816406 16.667969 25.820312 16.605469 25.824219 C 16.5 25.832031 16.398438 25.835938 16.296875 25.84375 C 16.238281 25.851562 16.175781 25.851562 16.113281 25.859375 C 16.003906 25.867188 15.898438 25.878906 15.789062 25.886719 C 15.734375 25.890625 15.679688 25.898438 15.628906 25.902344 C 15.46875 25.917969 15.3125 25.933594 15.160156 25.953125 C 15.128906 25.957031 15.09375 25.960938 15.066406 25.964844 C 14.933594 25.980469 14.804688 26 14.671875 26.019531 C 14.609375 26.027344 14.550781 26.039062 14.488281 26.046875 C 14.402344 26.058594 14.316406 26.070312 14.230469 26.085938 C 12.574219 25.472656 11.058594 24.476562 9.828125 23.199219 C 9.832031 23.195312 9.835938 23.191406 9.839844 23.1875 C 9.902344 23.121094 9.957031 23.050781 10.015625 22.984375 C 10.027344 22.972656 10.035156 22.957031 10.046875 22.945312 C 10.101562 22.871094 10.152344 22.800781 10.199219 22.726562 C 10.210938 22.710938 10.21875 22.699219 10.226562 22.6875 C 10.273438 22.609375 10.320312 22.527344 10.363281 22.449219 C 10.363281 22.441406 10.367188 22.433594 10.371094 22.429688 C 10.414062 22.347656 10.449219 22.265625 10.484375 22.179688 C 10.488281 22.171875 10.492188 22.164062 10.496094 22.15625 C 10.527344 22.070312 10.558594 21.984375 10.585938 21.894531 C 10.589844 21.882812 10.59375 21.867188 10.597656 21.851562 C 10.621094 21.765625 10.640625 21.679688 10.660156 21.589844 C 10.664062 21.574219 10.667969 21.558594 10.667969 21.542969 C 10.6875 21.453125 10.699219 21.363281 10.707031 21.273438 C 10.707031 21.261719 10.710938 21.246094 10.710938 21.238281 C 10.71875 21.140625 10.726562 21.042969 10.726562 20.949219 C 10.726562 19.144531 9.261719 17.679688 7.457031 17.679688 C 7.359375 17.679688 7.265625 17.683594 7.171875 17.691406 C 7.144531 17.691406 7.117188 17.695312 7.089844 17.699219 C 7.019531 17.707031 6.949219 17.714844 6.878906 17.730469 C 6.863281 17.734375 6.847656 17.734375 6.832031 17.734375 C 6.613281 16.832031 6.503906 15.902344 6.503906 14.960938 C 6.503906 8.421875 11.824219 3.101562 18.367188 3.101562 C 22.230469 3.101562 25.851562 4.980469 28.074219 8.140625 C 28.0625 8.175781 28.054688 8.210938 28.046875 8.246094 C 28.035156 8.289062 28.023438 8.332031 28.015625 8.375 C 28 8.441406 27.988281 8.507812 27.976562 8.574219 C 27.96875 8.613281 27.960938 8.65625 27.957031 8.699219 C 27.945312 8.769531 27.9375 8.84375 27.929688 8.917969 C 27.925781 8.953125 27.921875 8.988281 27.917969 9.023438 C 27.910156 9.132812 27.90625 9.242188 27.90625 9.351562 C 27.90625 9.453125 27.910156 9.550781 27.914062 9.652344 C 27.917969 9.683594 27.921875 9.71875 27.925781 9.75 C 27.929688 9.816406 27.9375 9.882812 27.945312 9.949219 C 27.949219 9.988281 27.957031 10.027344 27.964844 10.066406 C 27.976562 10.125 27.984375 10.183594 27.996094 10.242188 C 28.003906 10.285156 28.015625 10.324219 28.023438 10.363281 C 28.039062 10.417969 28.046875 10.476562 28.066406 10.53125 C 28.074219 10.570312 28.089844 10.613281 28.101562 10.652344 C 28.117188 10.707031 28.132812 10.761719 28.148438 10.8125 C 28.164062 10.851562 28.179688 10.894531 28.195312 10.933594 C 28.214844 10.984375 28.234375 11.035156 28.253906 11.085938 C 28.273438 11.125 28.292969 11.167969 28.308594 11.207031 C 28.332031 11.257812 28.351562 11.304688 28.375 11.351562 C 28.394531 11.390625 28.417969 11.429688 28.4375 11.472656 C 28.460938 11.519531 28.488281 11.5625 28.511719 11.609375 C 28.535156 11.648438 28.5625 11.6875 28.585938 11.726562 C 28.613281 11.773438 28.636719 11.816406 28.667969 11.859375 C 28.691406 11.898438 28.71875 11.933594 28.746094 11.972656 C 28.777344 12.015625 28.804688 12.054688 28.835938 12.097656 C 28.867188 12.132812 28.894531 12.167969 28.925781 12.207031 C 28.960938 12.246094 28.988281 12.285156 29.023438 12.324219 C 29.054688 12.359375 29.085938 12.394531 29.121094 12.429688 C 29.15625 12.464844 29.1875 12.5 29.222656 12.535156 C 29.257812 12.570312 29.292969 12.601562 29.328125 12.636719 C 29.367188 12.671875 29.402344 12.703125 29.4375 12.738281 C 29.476562 12.769531 29.515625 12.800781 29.550781 12.832031 C 29.589844 12.863281 29.628906 12.894531 29.667969 12.925781 C 29.707031 12.953125 29.746094 12.984375 29.785156 13.011719 C 29.828125 13.042969 29.867188 13.070312 29.910156 13.097656 C 29.953125 13.125 29.992188 13.152344 30.035156 13.179688 C 30.058594 13.191406 30.078125 13.207031 30.101562 13.222656 C 30.1875 13.789062 30.226562 14.371094 30.226562 14.957031 C 30.226562 15.898438 30.117188 16.832031 29.898438 17.738281 C 29.878906 17.734375 29.863281 17.734375 29.84375 17.730469 C 29.769531 17.714844 29.695312 17.703125 29.621094 17.695312 C 29.589844 17.691406 29.5625 17.6875 29.53125 17.6875 C 29.433594 17.675781 29.332031 17.671875 29.234375 17.671875 C 27.429688 17.671875 25.964844 19.136719 25.964844 20.941406 C 25.964844 21.039062 25.96875 21.136719 25.980469 21.234375 Z M 18.371094 1.464844 C 22.5 1.464844 26.324219 3.308594 28.90625 6.523438 C 28.859375 6.582031 28.816406 6.640625 28.769531 6.699219 C 28.757812 6.714844 28.746094 6.734375 28.734375 6.75 C 28.703125 6.796875 28.671875 6.839844 28.644531 6.886719 C 28.628906 6.910156 28.613281 6.933594 28.597656 6.957031 C 28.574219 7 28.546875 7.039062 28.523438 7.082031 C 28.507812 7.109375 28.496094 7.132812 28.480469 7.160156 C 28.457031 7.199219 28.4375 7.242188 28.414062 7.28125 C 28.398438 7.308594 28.386719 7.335938 28.375 7.363281 C 28.355469 7.398438 28.339844 7.433594 28.324219 7.46875 C 25.976562 4.351562 22.296875 2.503906 18.371094 2.503906 C 11.503906 2.503906 5.914062 8.09375 5.914062 14.960938 C 5.914062 15.957031 6.035156 16.945312 6.265625 17.902344 C 6.261719 17.90625 6.253906 17.90625 6.246094 17.910156 C 6.222656 17.921875 6.199219 17.929688 6.171875 17.941406 C 6.089844 17.976562 6.007812 18.015625 5.929688 18.058594 C 5.917969 18.0625 5.90625 18.066406 5.894531 18.074219 C 5.804688 18.125 5.71875 18.179688 5.636719 18.234375 C 5.613281 18.25 5.59375 18.265625 5.574219 18.277344 C 5.503906 18.328125 5.4375 18.378906 5.375 18.433594 C 5.363281 18.441406 5.351562 18.449219 5.339844 18.460938 C 5.035156 17.324219 4.878906 16.148438 4.878906 14.960938 C 4.878906 7.523438 10.933594 1.46875 18.375 1.46875 Z M 4.785156 20.945312 C 4.785156 20.3125 5.011719 19.699219 5.417969 19.21875 C 5.421875 19.214844 5.421875 19.210938 5.425781 19.207031 C 5.449219 19.179688 5.476562 19.152344 5.5 19.125 C 5.519531 19.105469 5.535156 19.085938 5.554688 19.066406 C 5.582031 19.039062 5.609375 19.011719 5.640625 18.988281 C 5.65625 18.96875 5.675781 18.949219 5.695312 18.933594 C 5.726562 18.90625 5.753906 18.882812 5.785156 18.859375 C 5.804688 18.84375 5.824219 18.824219 5.847656 18.808594 C 5.878906 18.789062 5.910156 18.765625 5.941406 18.746094 C 5.960938 18.730469 5.980469 18.714844 6.003906 18.699219 C 6.035156 18.679688 6.074219 18.660156 6.105469 18.636719 C 6.128906 18.625 6.148438 18.613281 6.171875 18.601562 C 6.207031 18.582031 6.242188 18.5625 6.28125 18.546875 C 6.300781 18.535156 6.320312 18.523438 6.34375 18.511719 C 6.386719 18.492188 6.425781 18.476562 6.46875 18.460938 C 6.488281 18.453125 6.503906 18.445312 6.523438 18.4375 C 6.582031 18.414062 6.644531 18.394531 6.707031 18.375 C 6.949219 18.304688 7.203125 18.265625 7.464844 18.265625 C 8.9375 18.265625 10.136719 19.46875 10.136719 20.941406 C 10.136719 21.039062 10.132812 21.136719 10.121094 21.230469 C 10.050781 21.894531 9.730469 22.511719 9.21875 22.960938 C 9.140625 23.027344 9.058594 23.089844 8.972656 23.148438 C 8.898438 23.199219 8.820312 23.25 8.742188 23.292969 C 8.457031 23.449219 8.148438 23.550781 7.824219 23.59375 C 6.191406 23.8125 4.789062 22.539062 4.789062 20.941406 Z M 8.417969 24.070312 C 8.433594 24.066406 8.449219 24.058594 8.460938 24.054688 C 8.539062 24.027344 8.621094 24 8.695312 23.96875 C 8.71875 23.960938 8.742188 23.949219 8.765625 23.941406 C 8.855469 23.902344 8.949219 23.855469 9.035156 23.808594 C 9.050781 23.800781 9.0625 23.792969 9.078125 23.785156 C 9.152344 23.742188 9.226562 23.695312 9.300781 23.644531 C 9.324219 23.628906 9.34375 23.613281 9.367188 23.597656 C 9.375 23.59375 9.378906 23.589844 9.386719 23.585938 C 10.46875 24.714844 11.761719 25.636719 13.179688 26.285156 C 13.121094 26.296875 13.0625 26.308594 13.003906 26.320312 C 12.886719 26.296875 12.769531 26.277344 12.652344 26.257812 C 12.566406 26.242188 12.480469 26.222656 12.394531 26.207031 C 12.226562 26.175781 12.0625 26.152344 11.890625 26.125 C 11.847656 26.117188 11.804688 26.109375 11.761719 26.101562 C 11.546875 26.070312 11.335938 26.039062 11.125 26.011719 C 11.074219 26.003906 11.023438 25.996094 10.96875 25.992188 C 10.820312 25.972656 10.671875 25.953125 10.523438 25.9375 C 9.761719 25.390625 9.054688 24.765625 8.421875 24.070312 Z M 10.34375 29.019531 L 10.34375 35.523438 L 3.210938 35.523438 L 3.210938 30.1875 C 3.210938 30.023438 3.078125 29.890625 2.914062 29.890625 C 2.75 29.890625 2.617188 30.023438 2.617188 30.1875 L 2.617188 35.523438 L 0.664062 35.523438 L 0.664062 29.019531 C 0.664062 28.101562 1.277344 27.296875 2.160156 27.066406 C 4.734375 26.398438 7.492188 26.214844 10.355469 26.515625 C 10.363281 26.515625 10.371094 26.519531 10.382812 26.519531 C 10.601562 26.542969 10.820312 26.570312 11.042969 26.597656 C 11.113281 26.609375 11.183594 26.621094 11.257812 26.628906 C 11.40625 26.648438 11.558594 26.671875 11.707031 26.695312 C 11.722656 26.695312 11.734375 26.699219 11.75 26.703125 C 11.691406 26.730469 11.636719 26.765625 11.582031 26.796875 C 10.820312 27.269531 10.347656 28.121094 10.347656 29.019531 Z M 10.941406 29.019531 C 10.941406 28.324219 11.304688 27.667969 11.894531 27.304688 C 12.058594 27.199219 12.242188 27.121094 12.441406 27.066406 C 12.640625 27.015625 12.847656 26.964844 13.070312 26.914062 C 13.445312 26.828125 13.839844 26.753906 14.242188 26.683594 C 14.246094 26.683594 14.25 26.683594 14.253906 26.679688 C 16.792969 26.253906 19.5 26.277344 22.304688 26.746094 C 22.308594 26.746094 22.3125 26.746094 22.316406 26.746094 C 22.632812 26.800781 22.9375 26.855469 23.246094 26.917969 C 23.546875 26.980469 23.863281 27.046875 24.183594 27.125 C 24.390625 27.171875 24.589844 27.25 24.769531 27.359375 C 25.382812 27.722656 25.761719 28.386719 25.761719 29.09375 L 25.761719 35.523438 L 23.808594 35.523438 L 23.808594 30.1875 C 23.808594 30.023438 23.675781 29.890625 23.511719 29.890625 C 23.347656 29.890625 23.214844 30.023438 23.214844 30.1875 L 23.214844 35.523438 L 13.53125 35.523438 L 13.53125 30.1875 C 13.53125 30.023438 13.398438 29.890625 13.234375 29.890625 C 13.226562 29.890625 13.21875 29.890625 13.214844 29.894531 C 13.207031 29.894531 13.199219 29.890625 13.195312 29.890625 C 13.03125 29.890625 12.898438 30.023438 12.898438 30.1875 L 12.898438 35.523438 L 10.941406 35.523438 Z M 34.503906 27.125 C 35.433594 27.339844 36.082031 28.152344 36.082031 29.09375 L 36.082031 35.523438 L 34.125 35.523438 L 34.125 30.1875 C 34.125 30.023438 33.992188 29.890625 33.828125 29.890625 C 33.664062 29.890625 33.53125 30.023438 33.53125 30.1875 L 33.53125 35.523438 L 26.359375 35.523438 L 26.359375 29.09375 C 26.359375 28.175781 25.863281 27.316406 25.074219 26.847656 C 25.011719 26.8125 24.953125 26.78125 24.890625 26.75 C 24.871094 26.738281 24.847656 26.730469 24.828125 26.71875 C 24.785156 26.703125 24.746094 26.683594 24.703125 26.664062 C 24.703125 26.664062 24.699219 26.664062 24.695312 26.664062 C 24.726562 26.660156 24.757812 26.652344 24.789062 26.648438 C 24.972656 26.621094 25.15625 26.59375 25.339844 26.570312 C 25.433594 26.558594 25.527344 26.546875 25.617188 26.535156 C 25.894531 26.503906 26.171875 26.472656 26.449219 26.449219 C 26.453125 26.449219 26.457031 26.449219 26.457031 26.449219 C 28.996094 26.246094 31.703125 26.476562 34.503906 27.125 Z M 26.328125 25.863281 C 26.167969 25.875 26.007812 25.894531 25.847656 25.910156 C 25.761719 25.917969 25.675781 25.925781 25.589844 25.933594 C 25.363281 25.960938 25.140625 25.992188 24.917969 26.023438 C 24.882812 26.03125 24.847656 26.035156 24.8125 26.039062 C 24.550781 26.078125 24.292969 26.125 24.035156 26.171875 C 23.964844 26.1875 23.894531 26.203125 23.820312 26.21875 C 23.757812 26.230469 23.691406 26.246094 23.625 26.257812 C 25.011719 25.613281 26.277344 24.710938 27.34375 23.601562 C 27.351562 23.605469 27.359375 23.613281 27.363281 23.617188 C 27.386719 23.632812 27.410156 23.648438 27.433594 23.664062 C 27.503906 23.710938 27.578125 23.757812 27.65625 23.800781 C 27.671875 23.808594 27.683594 23.816406 27.695312 23.824219 C 27.785156 23.875 27.875 23.917969 27.96875 23.957031 C 27.992188 23.964844 28.015625 23.972656 28.039062 23.984375 C 28.117188 24.011719 28.195312 24.039062 28.273438 24.0625 C 28.289062 24.070312 28.300781 24.074219 28.316406 24.082031 C 27.714844 24.738281 27.046875 25.335938 26.328125 25.863281 Z M 28.914062 23.597656 C 28.390625 23.535156 27.90625 23.320312 27.503906 22.976562 C 26.910156 22.46875 26.566406 21.726562 26.566406 20.945312 C 26.566406 19.46875 27.765625 18.269531 29.242188 18.269531 C 29.511719 18.269531 29.777344 18.308594 30.035156 18.386719 C 30.097656 18.40625 30.15625 18.429688 30.214844 18.453125 C 30.242188 18.460938 30.269531 18.472656 30.296875 18.484375 C 30.328125 18.5 30.363281 18.511719 30.394531 18.527344 C 30.421875 18.542969 30.449219 18.558594 30.476562 18.574219 C 30.507812 18.589844 30.539062 18.601562 30.566406 18.617188 C 30.59375 18.636719 30.621094 18.652344 30.648438 18.671875 C 30.675781 18.6875 30.703125 18.703125 30.730469 18.722656 C 30.757812 18.738281 30.78125 18.757812 30.808594 18.777344 C 30.835938 18.796875 30.863281 18.816406 30.886719 18.835938 C 30.914062 18.855469 30.9375 18.875 30.960938 18.898438 C 30.984375 18.917969 31.011719 18.9375 31.035156 18.960938 C 31.058594 18.980469 31.082031 19.003906 31.101562 19.027344 C 31.128906 19.050781 31.152344 19.074219 31.175781 19.097656 C 31.195312 19.121094 31.21875 19.144531 31.238281 19.167969 C 31.261719 19.191406 31.28125 19.214844 31.304688 19.242188 C 31.308594 19.246094 31.3125 19.25 31.3125 19.253906 C 31.703125 19.730469 31.917969 20.332031 31.917969 20.949219 C 31.917969 22.53125 30.542969 23.800781 28.914062 23.601562 Z M 28.914062 23.597656 " fill-opacity="1" fill-rule="nonzero"/></g><path fill="#ffffff" d="M 18.371094 7.140625 C 19.167969 7.140625 19.816406 6.492188 19.816406 5.695312 C 19.816406 4.898438 19.167969 4.25 18.371094 4.25 C 17.574219 4.25 16.925781 4.898438 16.925781 5.695312 C 16.925781 6.492188 17.574219 7.140625 18.371094 7.140625 Z M 18.371094 4.84375 C 18.839844 4.84375 19.222656 5.226562 19.222656 5.695312 C 19.222656 6.164062 18.839844 6.546875 18.371094 6.546875 C 17.902344 6.546875 17.519531 6.164062 17.519531 5.695312 C 17.519531 5.226562 17.902344 4.84375 18.371094 4.84375 Z M 18.371094 4.84375 " fill-opacity="1" fill-rule="nonzero"/><path fill="#ffffff" d="M 25.941406 7.390625 C 25.671875 7.117188 25.308594 6.964844 24.921875 6.964844 C 24.535156 6.964844 24.171875 7.117188 23.902344 7.390625 C 23.335938 7.953125 23.335938 8.871094 23.902344 9.433594 C 24.171875 9.707031 24.535156 9.855469 24.921875 9.855469 C 25.308594 9.855469 25.671875 9.707031 25.941406 9.433594 C 26.507812 8.871094 26.507812 7.953125 25.941406 7.390625 Z M 25.523438 9.011719 C 25.363281 9.171875 25.148438 9.261719 24.921875 9.261719 C 24.695312 9.261719 24.480469 9.171875 24.320312 9.011719 C 24.160156 8.851562 24.070312 8.636719 24.070312 8.410156 C 24.070312 8.183594 24.160156 7.96875 24.320312 7.808594 C 24.480469 7.648438 24.695312 7.558594 24.921875 7.558594 C 25.148438 7.558594 25.363281 7.648438 25.523438 7.808594 C 25.683594 7.96875 25.773438 8.183594 25.773438 8.410156 C 25.773438 8.636719 25.683594 8.851562 25.523438 9.011719 Z M 25.523438 9.011719 " fill-opacity="1" fill-rule="nonzero"/><path fill="#ffffff" d="M 29.078125 14.960938 C 29.078125 14.164062 28.429688 13.515625 27.632812 13.515625 C 26.835938 13.515625 26.1875 14.164062 26.1875 14.960938 C 26.1875 15.757812 26.835938 16.40625 27.632812 16.40625 C 28.429688 16.40625 29.078125 15.757812 29.078125 14.960938 Z M 26.78125 14.960938 C 26.78125 14.492188 27.164062 14.109375 27.632812 14.109375 C 28.101562 14.109375 28.484375 14.492188 28.484375 14.960938 C 28.484375 15.429688 28.101562 15.8125 27.632812 15.8125 C 27.164062 15.8125 26.78125 15.429688 26.78125 14.960938 Z M 26.78125 14.960938 " fill-opacity="1" fill-rule="nonzero"/><path fill="#ffffff" d="M 9.109375 13.515625 C 8.3125 13.515625 7.664062 14.164062 7.664062 14.960938 C 7.664062 15.757812 8.3125 16.40625 9.109375 16.40625 C 9.90625 16.40625 10.554688 15.757812 10.554688 14.960938 C 10.554688 14.164062 9.90625 13.515625 9.109375 13.515625 Z M 9.109375 15.8125 C 8.640625 15.8125 8.257812 15.429688 8.257812 14.960938 C 8.257812 14.492188 8.640625 14.109375 9.109375 14.109375 C 9.578125 14.109375 9.960938 14.492188 9.960938 14.960938 C 9.960938 15.429688 9.578125 15.8125 9.109375 15.8125 Z M 9.109375 15.8125 " fill-opacity="1" fill-rule="nonzero"/><path fill="#ffffff" d="M 12.84375 7.390625 C 12.570312 7.117188 12.207031 6.964844 11.820312 6.964844 C 11.4375 6.964844 11.074219 7.117188 10.800781 7.390625 C 10.234375 7.953125 10.234375 8.871094 10.800781 9.433594 C 11.074219 9.707031 11.4375 9.855469 11.820312 9.855469 C 12.207031 9.855469 12.570312 9.707031 12.84375 9.433594 C 13.40625 8.871094 13.40625 7.953125 12.84375 7.390625 Z M 12.421875 9.011719 C 12.261719 9.171875 12.050781 9.261719 11.820312 9.261719 C 11.59375 9.261719 11.378906 9.171875 11.21875 9.011719 C 11.058594 8.851562 10.96875 8.636719 10.96875 8.410156 C 10.96875 8.183594 11.058594 7.96875 11.21875 7.808594 C 11.378906 7.648438 11.59375 7.558594 11.820312 7.558594 C 12.050781 7.558594 12.261719 7.648438 12.421875 7.808594 C 12.585938 7.96875 12.671875 8.183594 12.671875 8.410156 C 12.671875 8.636719 12.585938 8.851562 12.421875 9.011719 Z M 12.421875 9.011719 " fill-opacity="1" fill-rule="nonzero"/><path fill="#ffffff" d="M 25.117188 11.082031 L 19.304688 14.257812 C 19.109375 13.949219 18.765625 13.746094 18.371094 13.746094 C 18.007812 13.746094 17.6875 13.921875 17.484375 14.191406 L 12.503906 12.015625 C 12.351562 11.949219 12.175781 12.019531 12.109375 12.167969 C 12.042969 12.320312 12.113281 12.492188 12.261719 12.558594 L 17.265625 14.746094 C 17.261719 14.78125 17.261719 14.816406 17.261719 14.851562 C 17.261719 15.464844 17.757812 15.960938 18.371094 15.960938 C 18.980469 15.960938 19.476562 15.464844 19.476562 14.851562 C 19.476562 14.847656 19.476562 14.84375 19.476562 14.84375 L 25.398438 11.605469 C 25.542969 11.527344 25.597656 11.347656 25.519531 11.203125 C 25.4375 11.058594 25.257812 11.003906 25.113281 11.082031 Z M 18.371094 15.367188 C 18.085938 15.367188 17.855469 15.136719 17.855469 14.851562 C 17.855469 14.570312 18.085938 14.335938 18.371094 14.335938 C 18.65625 14.335938 18.886719 14.570312 18.886719 14.851562 C 18.886719 15.136719 18.652344 15.367188 18.371094 15.367188 Z M 18.371094 15.367188 " fill-opacity="1" fill-rule="nonzero"/><path fill="#ffffff" d="M 31.414062 11.054688 C 31.472656 11.113281 31.546875 11.140625 31.625 11.140625 C 31.703125 11.140625 31.777344 11.113281 31.835938 11.054688 L 34.820312 8.070312 C 34.933594 7.953125 34.933594 7.765625 34.820312 7.648438 C 34.703125 7.535156 34.515625 7.535156 34.398438 7.648438 L 31.625 10.421875 L 30.453125 9.25 C 30.335938 9.132812 30.148438 9.132812 30.03125 9.25 C 29.917969 9.367188 29.917969 9.554688 30.03125 9.671875 Z M 31.414062 11.054688 " fill-opacity="1" fill-rule="nonzero"/></svg>