<svg xmlns="http://www.w3.org/2000/svg" xmlns:xlink="http://www.w3.org/1999/xlink" width="50" zoomAndPan="magnify" viewBox="0 0 37.5 37.499999" height="50" preserveAspectRatio="xMidYMid meet" version="1.0"><defs><clipPath id="3dd84973c0"><path d="M 19 0 L 37.007812 0 L 37.007812 18 L 19 18 Z M 19 0 " clip-rule="nonzero"/></clipPath><clipPath id="1d7c2dff65"><path d="M 0 19 L 18 19 L 18 37.007812 L 0 37.007812 Z M 0 19 " clip-rule="nonzero"/></clipPath><clipPath id="119c598cd8"><path d="M 19 19 L 37.007812 19 L 37.007812 37.007812 L 19 37.007812 Z M 19 19 " clip-rule="nonzero"/></clipPath></defs><path fill="#ffffff" d="M 11.117188 0 L 6.167969 0 C 5.761719 0 5.363281 0.0390625 4.964844 0.121094 C 4.566406 0.199219 4.183594 0.316406 3.808594 0.472656 C 3.433594 0.625 3.078125 0.816406 2.742188 1.042969 C 2.40625 1.265625 2.09375 1.523438 1.808594 1.808594 C 1.523438 2.09375 1.265625 2.40625 1.042969 2.742188 C 0.816406 3.078125 0.625 3.433594 0.472656 3.808594 C 0.316406 4.183594 0.199219 4.566406 0.121094 4.964844 C 0.0390625 5.363281 0 5.761719 0 6.167969 L 0 11.117188 C 0 11.523438 0.0390625 11.925781 0.121094 12.320312 C 0.199219 12.71875 0.316406 13.101562 0.472656 13.476562 C 0.625 13.851562 0.816406 14.207031 1.042969 14.542969 C 1.265625 14.878906 1.523438 15.191406 1.808594 15.476562 C 2.09375 15.765625 2.40625 16.019531 2.742188 16.246094 C 3.078125 16.46875 3.433594 16.660156 3.808594 16.816406 C 4.183594 16.96875 4.566406 17.085938 4.964844 17.167969 C 5.363281 17.246094 5.761719 17.285156 6.167969 17.285156 L 15.011719 17.285156 C 15.316406 17.285156 15.605469 17.226562 15.882812 17.113281 C 16.160156 16.996094 16.40625 16.832031 16.621094 16.621094 C 16.832031 16.40625 16.996094 16.160156 17.113281 15.882812 C 17.226562 15.605469 17.285156 15.316406 17.285156 15.011719 L 17.285156 6.167969 C 17.285156 5.761719 17.246094 5.363281 17.167969 4.964844 C 17.085938 4.566406 16.96875 4.183594 16.816406 3.808594 C 16.660156 3.433594 16.46875 3.078125 16.246094 2.742188 C 16.019531 2.40625 15.765625 2.09375 15.476562 1.808594 C 15.191406 1.523438 14.878906 1.265625 14.542969 1.042969 C 14.207031 0.816406 13.851562 0.625 13.476562 0.472656 C 13.101562 0.316406 12.71875 0.199219 12.320312 0.121094 C 11.925781 0.0390625 11.523438 0 11.117188 0 Z M 15.339844 15.011719 C 15.339844 15.101562 15.304688 15.179688 15.242188 15.242188 C 15.179688 15.304688 15.101562 15.339844 15.011719 15.339844 L 6.167969 15.339844 C 5.890625 15.339844 5.617188 15.3125 5.34375 15.257812 C 5.074219 15.203125 4.808594 15.121094 4.554688 15.015625 C 4.296875 14.910156 4.054688 14.78125 3.824219 14.625 C 3.59375 14.472656 3.382812 14.296875 3.183594 14.101562 C 2.988281 13.90625 2.8125 13.691406 2.660156 13.460938 C 2.507812 13.230469 2.375 12.988281 2.269531 12.730469 C 2.164062 12.476562 2.082031 12.210938 2.03125 11.941406 C 1.976562 11.667969 1.949219 11.394531 1.949219 11.117188 L 1.949219 6.167969 C 1.949219 5.890625 1.976562 5.617188 2.03125 5.34375 C 2.082031 5.074219 2.164062 4.808594 2.269531 4.554688 C 2.375 4.296875 2.507812 4.054688 2.660156 3.824219 C 2.8125 3.59375 2.988281 3.382812 3.183594 3.183594 C 3.382812 2.988281 3.59375 2.8125 3.824219 2.660156 C 4.054688 2.507812 4.296875 2.375 4.554688 2.269531 C 4.808594 2.164062 5.074219 2.082031 5.34375 2.03125 C 5.617188 1.976562 5.890625 1.949219 6.167969 1.949219 L 11.117188 1.949219 C 11.394531 1.949219 11.667969 1.976562 11.941406 2.03125 C 12.210938 2.082031 12.476562 2.164062 12.730469 2.269531 C 12.988281 2.375 13.230469 2.507812 13.460938 2.660156 C 13.691406 2.8125 13.90625 2.988281 14.101562 3.183594 C 14.296875 3.382812 14.472656 3.59375 14.625 3.824219 C 14.78125 4.054688 14.910156 4.296875 15.015625 4.554688 C 15.121094 4.808594 15.203125 5.074219 15.257812 5.34375 C 15.3125 5.617188 15.339844 5.890625 15.339844 6.167969 Z M 15.339844 15.011719 " fill-opacity="1" fill-rule="nonzero"/><g clip-path="url(#3dd84973c0)"><path fill="#ffffff" d="M 30.839844 0 L 25.886719 0 C 25.484375 0 25.082031 0.0390625 24.6875 0.121094 C 24.289062 0.199219 23.902344 0.316406 23.527344 0.472656 C 23.15625 0.625 22.800781 0.816406 22.464844 1.042969 C 22.125 1.265625 21.816406 1.523438 21.527344 1.808594 C 21.242188 2.09375 20.988281 2.40625 20.761719 2.742188 C 20.539062 3.078125 20.347656 3.433594 20.191406 3.808594 C 20.035156 4.183594 19.917969 4.566406 19.839844 4.964844 C 19.761719 5.363281 19.722656 5.761719 19.71875 6.167969 L 19.71875 15.011719 C 19.722656 15.316406 19.777344 15.605469 19.894531 15.882812 C 20.007812 16.160156 20.175781 16.40625 20.386719 16.621094 C 20.601562 16.832031 20.84375 16.996094 21.125 17.113281 C 21.402344 17.226562 21.691406 17.285156 21.992188 17.285156 L 30.839844 17.285156 C 31.242188 17.285156 31.644531 17.246094 32.042969 17.167969 C 32.4375 17.085938 32.824219 16.96875 33.199219 16.816406 C 33.570312 16.660156 33.925781 16.46875 34.265625 16.246094 C 34.601562 16.019531 34.910156 15.765625 35.199219 15.476562 C 35.484375 15.191406 35.738281 14.878906 35.964844 14.542969 C 36.191406 14.207031 36.378906 13.851562 36.535156 13.476562 C 36.691406 13.101562 36.808594 12.71875 36.886719 12.320312 C 36.964844 11.925781 37.007812 11.523438 37.007812 11.117188 L 37.007812 6.167969 C 37.007812 5.761719 36.964844 5.363281 36.886719 4.964844 C 36.808594 4.566406 36.691406 4.183594 36.535156 3.808594 C 36.378906 3.433594 36.191406 3.078125 35.964844 2.742188 C 35.738281 2.40625 35.484375 2.09375 35.199219 1.808594 C 34.910156 1.523438 34.601562 1.265625 34.265625 1.042969 C 33.925781 0.816406 33.570312 0.625 33.199219 0.472656 C 32.824219 0.316406 32.4375 0.199219 32.042969 0.121094 C 31.644531 0.0390625 31.242188 0 30.839844 0 Z M 35.058594 11.117188 C 35.058594 11.394531 35.03125 11.667969 34.976562 11.941406 C 34.921875 12.210938 34.84375 12.476562 34.734375 12.730469 C 34.628906 12.988281 34.5 13.230469 34.347656 13.460938 C 34.191406 13.691406 34.015625 13.90625 33.820312 14.101562 C 33.625 14.296875 33.414062 14.472656 33.183594 14.625 C 32.953125 14.78125 32.707031 14.910156 32.453125 15.015625 C 32.195312 15.121094 31.933594 15.203125 31.660156 15.257812 C 31.390625 15.3125 31.117188 15.339844 30.839844 15.339844 L 21.992188 15.339844 C 21.902344 15.339844 21.828125 15.304688 21.761719 15.242188 C 21.699219 15.179688 21.667969 15.101562 21.667969 15.011719 L 21.667969 6.167969 C 21.667969 5.890625 21.695312 5.617188 21.75 5.34375 C 21.804688 5.074219 21.882812 4.808594 21.992188 4.554688 C 22.097656 4.296875 22.226562 4.054688 22.382812 3.824219 C 22.535156 3.59375 22.710938 3.382812 22.90625 3.183594 C 23.101562 2.988281 23.316406 2.8125 23.546875 2.660156 C 23.773438 2.507812 24.019531 2.375 24.273438 2.269531 C 24.53125 2.164062 24.792969 2.082031 25.066406 2.03125 C 25.335938 1.976562 25.613281 1.949219 25.886719 1.949219 L 30.839844 1.949219 C 31.117188 1.949219 31.390625 1.976562 31.660156 2.03125 C 31.933594 2.082031 32.195312 2.164062 32.453125 2.269531 C 32.707031 2.375 32.953125 2.507812 33.183594 2.660156 C 33.414062 2.8125 33.625 2.988281 33.820312 3.183594 C 34.015625 3.382812 34.191406 3.59375 34.347656 3.824219 C 34.5 4.054688 34.628906 4.296875 34.738281 4.554688 C 34.84375 4.808594 34.921875 5.074219 34.976562 5.34375 C 35.03125 5.617188 35.058594 5.890625 35.058594 6.167969 Z M 35.058594 11.117188 " fill-opacity="1" fill-rule="nonzero"/></g><g clip-path="url(#1d7c2dff65)"><path fill="#ffffff" d="M 15.011719 19.71875 L 6.167969 19.71875 C 5.761719 19.722656 5.363281 19.761719 4.964844 19.839844 C 4.566406 19.917969 4.183594 20.035156 3.808594 20.191406 C 3.433594 20.347656 3.078125 20.539062 2.742188 20.761719 C 2.40625 20.988281 2.09375 21.242188 1.808594 21.527344 C 1.523438 21.816406 1.265625 22.125 1.042969 22.464844 C 0.816406 22.800781 0.625 23.15625 0.472656 23.527344 C 0.316406 23.902344 0.199219 24.289062 0.121094 24.6875 C 0.0390625 25.082031 0 25.484375 0 25.886719 L 0 30.839844 C 0 31.242188 0.0390625 31.644531 0.121094 32.042969 C 0.199219 32.4375 0.316406 32.824219 0.472656 33.199219 C 0.625 33.570312 0.816406 33.925781 1.042969 34.265625 C 1.265625 34.601562 1.523438 34.910156 1.808594 35.199219 C 2.09375 35.484375 2.40625 35.738281 2.742188 35.964844 C 3.078125 36.191406 3.433594 36.378906 3.808594 36.535156 C 4.183594 36.691406 4.566406 36.808594 4.964844 36.886719 C 5.363281 36.964844 5.761719 37.007812 6.167969 37.007812 L 11.117188 37.007812 C 11.523438 37.007812 11.925781 36.964844 12.320312 36.886719 C 12.71875 36.808594 13.101562 36.691406 13.476562 36.535156 C 13.851562 36.378906 14.207031 36.191406 14.542969 35.964844 C 14.878906 35.738281 15.191406 35.484375 15.476562 35.199219 C 15.765625 34.910156 16.019531 34.601562 16.246094 34.265625 C 16.46875 33.925781 16.660156 33.570312 16.816406 33.199219 C 16.96875 32.824219 17.085938 32.4375 17.167969 32.042969 C 17.246094 31.644531 17.285156 31.242188 17.285156 30.839844 L 17.285156 21.992188 C 17.285156 21.691406 17.226562 21.402344 17.113281 21.125 C 16.996094 20.84375 16.832031 20.601562 16.621094 20.386719 C 16.40625 20.175781 16.160156 20.007812 15.882812 19.894531 C 15.605469 19.777344 15.316406 19.722656 15.011719 19.71875 Z M 15.339844 30.839844 C 15.339844 31.117188 15.3125 31.390625 15.257812 31.660156 C 15.203125 31.933594 15.121094 32.195312 15.015625 32.453125 C 14.910156 32.707031 14.78125 32.953125 14.625 33.183594 C 14.472656 33.414062 14.296875 33.625 14.101562 33.820312 C 13.90625 34.015625 13.691406 34.191406 13.460938 34.347656 C 13.230469 34.5 12.988281 34.628906 12.730469 34.734375 C 12.476562 34.84375 12.210938 34.921875 11.941406 34.976562 C 11.667969 35.03125 11.394531 35.058594 11.117188 35.058594 L 6.167969 35.058594 C 5.890625 35.058594 5.617188 35.03125 5.34375 34.976562 C 5.074219 34.921875 4.808594 34.84375 4.554688 34.738281 C 4.296875 34.628906 4.054688 34.5 3.824219 34.347656 C 3.59375 34.191406 3.382812 34.015625 3.183594 33.820312 C 2.988281 33.625 2.8125 33.414062 2.660156 33.183594 C 2.507812 32.953125 2.375 32.707031 2.269531 32.453125 C 2.164062 32.195312 2.082031 31.933594 2.03125 31.660156 C 1.976562 31.390625 1.949219 31.117188 1.949219 30.839844 L 1.949219 25.886719 C 1.949219 25.613281 1.976562 25.335938 2.03125 25.066406 C 2.082031 24.792969 2.164062 24.53125 2.269531 24.273438 C 2.375 24.019531 2.507812 23.773438 2.660156 23.546875 C 2.8125 23.316406 2.988281 23.101562 3.183594 22.90625 C 3.382812 22.710938 3.59375 22.535156 3.824219 22.382812 C 4.054688 22.226562 4.296875 22.097656 4.554688 21.992188 C 4.808594 21.882812 5.074219 21.804688 5.34375 21.75 C 5.617188 21.695312 5.890625 21.667969 6.167969 21.667969 L 15.011719 21.667969 C 15.101562 21.667969 15.179688 21.699219 15.242188 21.761719 C 15.304688 21.828125 15.339844 21.902344 15.339844 21.992188 Z M 15.339844 30.839844 " fill-opacity="1" fill-rule="nonzero"/></g><g clip-path="url(#119c598cd8)"><path fill="#ffffff" d="M 30.839844 19.71875 L 21.992188 19.71875 C 21.691406 19.722656 21.402344 19.777344 21.125 19.894531 C 20.84375 20.007812 20.601562 20.175781 20.386719 20.386719 C 20.175781 20.601562 20.007812 20.84375 19.894531 21.125 C 19.777344 21.402344 19.722656 21.691406 19.71875 21.992188 L 19.71875 30.839844 C 19.722656 31.242188 19.761719 31.644531 19.839844 32.042969 C 19.917969 32.4375 20.035156 32.824219 20.191406 33.199219 C 20.347656 33.570312 20.539062 33.925781 20.761719 34.265625 C 20.988281 34.601562 21.242188 34.910156 21.527344 35.199219 C 21.816406 35.484375 22.125 35.738281 22.464844 35.964844 C 22.800781 36.191406 23.15625 36.378906 23.527344 36.535156 C 23.902344 36.691406 24.289062 36.808594 24.6875 36.886719 C 25.082031 36.964844 25.484375 37.007812 25.886719 37.007812 L 30.839844 37.007812 C 31.242188 37.007812 31.644531 36.964844 32.042969 36.886719 C 32.4375 36.808594 32.824219 36.691406 33.199219 36.535156 C 33.570312 36.378906 33.925781 36.191406 34.265625 35.964844 C 34.601562 35.738281 34.910156 35.484375 35.199219 35.199219 C 35.484375 34.910156 35.738281 34.601562 35.964844 34.265625 C 36.191406 33.925781 36.378906 33.570312 36.535156 33.199219 C 36.691406 32.824219 36.808594 32.4375 36.886719 32.042969 C 36.964844 31.644531 37.007812 31.242188 37.007812 30.839844 L 37.007812 25.886719 C 37.007812 25.484375 36.964844 25.082031 36.886719 24.6875 C 36.808594 24.289062 36.691406 23.902344 36.535156 23.527344 C 36.378906 23.15625 36.191406 22.800781 35.964844 22.464844 C 35.738281 22.125 35.484375 21.816406 35.199219 21.527344 C 34.910156 21.242188 34.601562 20.988281 34.265625 20.761719 C 33.925781 20.539062 33.570312 20.347656 33.199219 20.191406 C 32.824219 20.035156 32.4375 19.917969 32.042969 19.839844 C 31.644531 19.761719 31.242188 19.722656 30.839844 19.71875 Z M 35.058594 30.839844 C 35.058594 31.117188 35.03125 31.390625 34.976562 31.660156 C 34.921875 31.933594 34.84375 32.195312 34.738281 32.453125 C 34.628906 32.707031 34.5 32.953125 34.347656 33.183594 C 34.191406 33.414062 34.015625 33.625 33.820312 33.820312 C 33.625 34.015625 33.414062 34.191406 33.183594 34.347656 C 32.953125 34.5 32.707031 34.628906 32.453125 34.738281 C 32.195312 34.84375 31.933594 34.921875 31.660156 34.976562 C 31.390625 35.03125 31.117188 35.058594 30.839844 35.058594 L 25.886719 35.058594 C 25.613281 35.058594 25.335938 35.03125 25.066406 34.976562 C 24.792969 34.921875 24.53125 34.84375 24.273438 34.738281 C 24.019531 34.628906 23.773438 34.5 23.546875 34.347656 C 23.316406 34.191406 23.101562 34.015625 22.90625 33.820312 C 22.710938 33.625 22.535156 33.414062 22.382812 33.183594 C 22.226562 32.953125 22.097656 32.707031 21.992188 32.453125 C 21.882812 32.195312 21.804688 31.933594 21.75 31.660156 C 21.695312 31.390625 21.667969 31.117188 21.667969 30.839844 L 21.667969 21.992188 C 21.667969 21.902344 21.699219 21.828125 21.761719 21.761719 C 21.828125 21.699219 21.902344 21.667969 21.992188 21.667969 L 30.839844 21.667969 C 31.117188 21.667969 31.390625 21.695312 31.660156 21.75 C 31.933594 21.804688 32.195312 21.882812 32.453125 21.992188 C 32.707031 22.097656 32.953125 22.226562 33.183594 22.382812 C 33.414062 22.535156 33.625 22.710938 33.820312 22.90625 C 34.015625 23.101562 34.191406 23.316406 34.347656 23.546875 C 34.5 23.773438 34.628906 24.019531 34.738281 24.273438 C 34.84375 24.53125 34.921875 24.792969 34.976562 25.066406 C 35.03125 25.335938 35.058594 25.613281 35.058594 25.886719 Z M 35.058594 30.839844 " fill-opacity="1" fill-rule="nonzero"/></g></svg>