<svg xmlns="http://www.w3.org/2000/svg" xmlns:xlink="http://www.w3.org/1999/xlink" width="50" zoomAndPan="magnify" viewBox="0 0 37.5 37.499999" height="50" preserveAspectRatio="xMidYMid meet" version="1.0"><defs><clipPath id="3ff85a00d1"><path d="M 0.371094 0 L 37 0 L 37 30 L 0.371094 30 Z M 0.371094 0 " clip-rule="nonzero"/></clipPath></defs><g clip-path="url(#3ff85a00d1)"><path fill="#ffffff" d="M 11.242188 25.4375 L 32.144531 25.4375 C 32.59375 25.4375 32.980469 25.132812 33.085938 24.699219 L 36.9375 8.792969 C 37.007812 8.503906 36.941406 8.199219 36.757812 7.96875 C 36.574219 7.734375 36.292969 7.597656 35.996094 7.597656 L 29.976562 7.597656 C 29.902344 5.605469 29.089844 3.742188 27.671875 2.320312 C 26.183594 0.832031 24.203125 0.015625 22.097656 0.015625 C 19.992188 0.015625 18.015625 0.835938 16.523438 2.320312 C 15.105469 3.738281 14.296875 5.605469 14.222656 7.597656 L 9.089844 7.597656 L 7.957031 3.769531 C 7.835938 3.359375 7.457031 3.078125 7.027344 3.078125 L 1.335938 3.078125 C 0.804688 3.078125 0.371094 3.511719 0.371094 4.042969 C 0.371094 4.578125 0.804688 5.011719 1.335938 5.011719 L 6.308594 5.011719 L 7.433594 8.8125 L 10.839844 23.53125 C 9.386719 23.726562 8.261719 24.976562 8.261719 26.480469 C 8.261719 28.121094 9.597656 29.457031 11.238281 29.457031 L 32.839844 29.457031 C 33.375 29.457031 33.804688 29.023438 33.804688 28.492188 C 33.804688 27.957031 33.375 27.523438 32.839844 27.523438 L 11.242188 27.523438 C 10.664062 27.523438 10.199219 27.054688 10.199219 26.480469 C 10.199219 25.90625 10.664062 25.4375 11.242188 25.4375 Z M 17.910156 6.773438 C 18.074219 6.660156 18.261719 6.605469 18.445312 6.605469 C 18.753906 6.605469 19.050781 6.75 19.234375 7.023438 L 20.710938 9.179688 L 20.71875 9.191406 L 24.933594 4.417969 C 25.28125 4.023438 25.886719 3.984375 26.28125 4.332031 C 26.675781 4.679688 26.714844 5.285156 26.363281 5.679688 L 21.339844 11.371094 C 21.160156 11.578125 20.898438 11.695312 20.625 11.695312 C 20.605469 11.695312 20.585938 11.695312 20.566406 11.691406 C 20.269531 11.675781 20.003906 11.523438 19.835938 11.28125 L 17.660156 8.097656 C 17.363281 7.664062 17.476562 7.070312 17.910156 6.773438 Z M 14.386719 9.53125 C 14.699219 11.011719 15.429688 12.375 16.523438 13.46875 C 18.015625 14.957031 19.992188 15.777344 22.097656 15.777344 C 24.203125 15.777344 26.183594 14.957031 27.671875 13.46875 C 28.769531 12.371094 29.5 11.011719 29.8125 9.53125 L 34.769531 9.53125 L 31.382812 23.503906 L 12.820312 23.503906 L 9.585938 9.53125 Z M 14.386719 9.53125 " fill-opacity="1" fill-rule="nonzero"/></g><path fill="#ffffff" d="M 14.730469 30.707031 C 12.996094 30.707031 11.585938 32.113281 11.585938 33.847656 C 11.585938 35.582031 12.996094 36.992188 14.730469 36.992188 C 16.464844 36.992188 17.875 35.582031 17.875 33.847656 C 17.875 32.113281 16.464844 30.707031 14.730469 30.707031 Z M 14.730469 35.058594 C 14.0625 35.058594 13.523438 34.515625 13.523438 33.847656 C 13.523438 33.183594 14.066406 32.640625 14.730469 32.640625 C 15.398438 32.640625 15.941406 33.183594 15.941406 33.847656 C 15.941406 34.515625 15.398438 35.058594 14.730469 35.058594 Z M 14.730469 35.058594 " fill-opacity="1" fill-rule="nonzero"/><path fill="#ffffff" d="M 28.839844 30.707031 C 27.105469 30.707031 25.695312 32.113281 25.695312 33.847656 C 25.695312 35.582031 27.105469 36.992188 28.839844 36.992188 C 30.570312 36.992188 31.980469 35.582031 31.980469 33.847656 C 31.980469 32.113281 30.570312 30.707031 28.839844 30.707031 Z M 28.839844 35.058594 C 28.171875 35.058594 27.628906 34.515625 27.628906 33.847656 C 27.628906 33.183594 28.171875 32.640625 28.839844 32.640625 C 29.503906 32.640625 30.046875 33.183594 30.046875 33.847656 C 30.046875 34.515625 29.503906 35.058594 28.839844 35.058594 Z M 28.839844 35.058594 " fill-opacity="1" fill-rule="nonzero"/></svg>