<svg xmlns="http://www.w3.org/2000/svg" xmlns:xlink="http://www.w3.org/1999/xlink" width="50" zoomAndPan="magnify" viewBox="0 0 37.5 37.499999" height="50" preserveAspectRatio="xMidYMid meet" version="1.0"><defs><clipPath id="e39f7d6d6b"><path d="M 1.085938 17 L 35.875 17 L 35.875 37.007812 L 1.085938 37.007812 Z M 1.085938 17 " clip-rule="nonzero"/></clipPath></defs><path fill="#ffffff" d="M 14.320312 16.507812 C 18.503906 16.507812 21.746094 11.925781 21.746094 7.988281 C 21.757812 7.492188 21.722656 7 21.636719 6.507812 C 21.554688 6.019531 21.421875 5.542969 21.238281 5.082031 C 21.058594 4.621094 20.835938 4.179688 20.566406 3.761719 C 20.296875 3.34375 19.988281 2.960938 19.644531 2.601562 C 19.296875 2.246094 18.917969 1.929688 18.507812 1.648438 C 18.101562 1.371094 17.667969 1.132812 17.210938 0.941406 C 16.75 0.746094 16.28125 0.601562 15.792969 0.503906 C 15.308594 0.40625 14.816406 0.355469 14.320312 0.355469 C 13.824219 0.355469 13.332031 0.40625 12.84375 0.503906 C 12.359375 0.601562 11.886719 0.746094 11.429688 0.941406 C 10.972656 1.132812 10.539062 1.371094 10.128906 1.648438 C 9.71875 1.929688 9.339844 2.246094 8.996094 2.601562 C 8.648438 2.960938 8.339844 3.34375 8.074219 3.761719 C 7.804688 4.179688 7.578125 4.621094 7.398438 5.082031 C 7.21875 5.542969 7.085938 6.019531 7 6.507812 C 6.914062 7 6.878906 7.492188 6.894531 7.988281 C 6.894531 11.925781 10.136719 16.507812 14.320312 16.507812 Z M 14.320312 1.65625 C 14.738281 1.65625 15.148438 1.699219 15.554688 1.78125 C 15.960938 1.863281 16.359375 1.984375 16.742188 2.140625 C 17.125 2.300781 17.488281 2.496094 17.832031 2.726562 C 18.179688 2.957031 18.496094 3.222656 18.789062 3.515625 C 19.085938 3.808594 19.347656 4.128906 19.578125 4.472656 C 19.808594 4.820312 20 5.183594 20.160156 5.566406 C 20.320312 5.949219 20.4375 6.347656 20.519531 6.753906 C 20.601562 7.160156 20.640625 7.570312 20.640625 7.988281 C 20.640625 11.417969 17.878906 15.40625 14.320312 15.40625 C 10.765625 15.40625 7.996094 11.417969 7.996094 7.988281 C 7.996094 7.570312 8.039062 7.160156 8.121094 6.753906 C 8.199219 6.34375 8.320312 5.949219 8.480469 5.566406 C 8.636719 5.183594 8.832031 4.816406 9.0625 4.472656 C 9.292969 4.125 9.554688 3.808594 9.851562 3.511719 C 10.144531 3.21875 10.460938 2.957031 10.808594 2.726562 C 11.152344 2.496094 11.519531 2.300781 11.902344 2.140625 C 12.285156 1.980469 12.679688 1.859375 13.089844 1.78125 C 13.496094 1.699219 13.90625 1.65625 14.320312 1.65625 Z M 14.320312 1.65625 " fill-opacity="1" fill-rule="nonzero"/><g clip-path="url(#e39f7d6d6b)"><path fill="#ffffff" d="M 33.25 23.75 L 30.289062 23.75 L 30.289062 22.160156 C 30.285156 21.941406 30.242188 21.734375 30.15625 21.535156 C 30.070312 21.335938 29.949219 21.160156 29.792969 21.007812 C 29.636719 20.859375 29.460938 20.742188 29.257812 20.660156 C 29.058594 20.578125 28.851562 20.535156 28.632812 20.535156 L 25.972656 20.535156 C 24.605469 18.996094 22.519531 18.328125 17.957031 17.867188 C 17.726562 17.847656 17.550781 17.933594 17.433594 18.132812 L 16.398438 19.882812 L 16.128906 18.621094 C 16.101562 18.488281 16.039062 18.378906 15.933594 18.296875 C 15.828125 18.210938 15.710938 18.167969 15.574219 18.171875 L 13.023438 18.171875 C 12.890625 18.167969 12.769531 18.210938 12.667969 18.296875 C 12.5625 18.378906 12.496094 18.488281 12.472656 18.621094 L 12.261719 19.882812 L 11.222656 18.160156 C 11.105469 17.960938 10.929688 17.875 10.699219 17.894531 C 5.777344 18.328125 1.214844 19.382812 1.214844 24.304688 L 1.214844 31.175781 C 1.214844 31.328125 1.269531 31.457031 1.375 31.566406 C 1.484375 31.671875 1.613281 31.726562 1.765625 31.726562 L 17.914062 31.726562 L 17.914062 34.488281 C 17.914062 34.820312 17.976562 35.144531 18.105469 35.453125 C 18.234375 35.761719 18.417969 36.03125 18.652344 36.269531 C 18.890625 36.503906 19.164062 36.6875 19.472656 36.816406 C 19.78125 36.941406 20.101562 37.007812 20.4375 37.007812 L 33.25 37.007812 C 33.585938 37.003906 33.90625 36.941406 34.214844 36.8125 C 34.523438 36.683594 34.792969 36.503906 35.03125 36.265625 C 35.265625 36.03125 35.449219 35.757812 35.574219 35.449219 C 35.703125 35.144531 35.769531 34.820312 35.769531 34.488281 L 35.769531 26.273438 C 35.769531 25.941406 35.707031 25.617188 35.578125 25.308594 C 35.449219 25 35.269531 24.726562 35.03125 24.492188 C 34.796875 24.253906 34.523438 24.074219 34.214844 23.945312 C 33.90625 23.816406 33.585938 23.75 33.25 23.75 Z M 29.207031 22.160156 L 29.207031 23.75 L 24.480469 23.75 L 24.480469 22.160156 C 24.480469 22.015625 24.53125 21.894531 24.632812 21.792969 C 24.734375 21.691406 24.855469 21.640625 25 21.640625 L 28.660156 21.640625 C 28.800781 21.648438 28.921875 21.699219 29.023438 21.800781 C 29.121094 21.898438 29.175781 22.019531 29.183594 22.160156 Z M 13.476562 19.277344 L 15.132812 19.277344 L 15.574219 21.269531 L 14.351562 23.320312 L 13.085938 21.265625 Z M 2.320312 30.621094 L 2.320312 24.304688 C 2.320312 20.195312 6.300781 19.429688 10.433594 19.007812 L 13.851562 24.679688 C 13.902344 24.761719 13.96875 24.824219 14.054688 24.875 C 14.136719 24.921875 14.226562 24.945312 14.324219 24.945312 C 14.421875 24.945312 14.511719 24.921875 14.597656 24.875 C 14.679688 24.824219 14.746094 24.761719 14.796875 24.679688 L 16.59375 21.691406 L 18.199219 19.015625 C 21.746094 19.382812 23.425781 19.894531 24.457031 20.675781 C 24.128906 20.785156 23.863281 20.980469 23.660156 21.257812 C 23.457031 21.539062 23.355469 21.851562 23.351562 22.199219 L 23.351562 23.75 L 20.4375 23.75 C 20.101562 23.75 19.78125 23.816406 19.472656 23.945312 C 19.164062 24.074219 18.890625 24.253906 18.652344 24.492188 C 18.417969 24.726562 18.234375 25 18.105469 25.308594 C 17.976562 25.617188 17.914062 25.941406 17.914062 26.273438 L 17.914062 30.621094 Z M 34.640625 34.488281 C 34.644531 34.671875 34.609375 34.851562 34.535156 35.023438 C 34.464844 35.195312 34.367188 35.347656 34.234375 35.480469 C 34.105469 35.613281 33.957031 35.714844 33.785156 35.789062 C 33.613281 35.859375 33.4375 35.898438 33.25 35.902344 L 20.4375 35.902344 C 20.25 35.902344 20.066406 35.867188 19.894531 35.792969 C 19.722656 35.722656 19.566406 35.621094 19.433594 35.488281 C 19.300781 35.355469 19.199219 35.203125 19.125 35.03125 C 19.054688 34.855469 19.019531 34.675781 19.015625 34.488281 L 19.015625 26.273438 C 19.015625 26.085938 19.054688 25.90625 19.125 25.730469 C 19.195312 25.558594 19.300781 25.402344 19.433594 25.269531 C 19.566406 25.136719 19.71875 25.035156 19.894531 24.964844 C 20.066406 24.890625 20.25 24.855469 20.4375 24.855469 L 33.25 24.855469 C 33.4375 24.855469 33.617188 24.890625 33.792969 24.964844 C 33.964844 25.039062 34.117188 25.140625 34.25 25.273438 C 34.382812 25.40625 34.484375 25.558594 34.558594 25.734375 C 34.628906 25.90625 34.664062 26.085938 34.664062 26.273438 Z M 34.640625 34.488281 " fill-opacity="1" fill-rule="nonzero"/></g><path fill="#ffffff" d="M 29.335938 28.125 L 26.019531 31.4375 L 24.363281 29.78125 C 24.253906 29.6875 24.128906 29.644531 23.984375 29.648438 C 23.839844 29.65625 23.714844 29.707031 23.613281 29.8125 C 23.511719 29.914062 23.457031 30.035156 23.453125 30.179688 C 23.445312 30.324219 23.492188 30.453125 23.585938 30.5625 L 25.640625 32.617188 C 25.746094 32.722656 25.878906 32.777344 26.03125 32.777344 C 26.183594 32.777344 26.316406 32.722656 26.421875 32.617188 L 30.152344 28.886719 C 30.246094 28.777344 30.289062 28.652344 30.285156 28.507812 C 30.277344 28.363281 30.226562 28.238281 30.125 28.136719 C 30.019531 28.035156 29.898438 27.980469 29.753906 27.976562 C 29.609375 27.96875 29.484375 28.015625 29.375 28.109375 Z M 29.335938 28.125 " fill-opacity="1" fill-rule="nonzero"/></svg>